**ABCDEFGHIJKLMNOPQRSTUVWXYZabcdefghijklmnopqrstuvwxyz**************************
**PARASOLID !"#$%&'()*+,-./:;<=>?@[\]^_`{|}~0123456789**************************
**PART1;
MC=AMD64;
MC_MODEL=Intel64 Family 6 Model 142 Stepping 10, GenuineIntel;
MC_ID=unknown;
OS=Windows_NT;
OS_RELEASE=unknown;
FRU=Parasolid Version 30.0, build 298, 12-15-2017;
APPL=SOLIDWORKS 2018-2018134;
SITE=;
USER=unknown;
FORMAT=text;
GUISE=transmit;
KEY=Ch 2-3;
FILE=Ch 2-3.x_t;
DATE=Sun Jun  2 08:50:48 2019;
**PART2;
SCH=SCH_3000298_30000;
USFLD_SIZE=0;
**PART3;
**END_OF_HEADER*****************************************************************
T51 : TRANSMIT FILE created by modeller version 300029823 SCH_3000298_30000_1300
6205 0 12 33 CCCCCCI4 mesh1006 0 I8 polyline1008 0 CCCCCCCDI5 owner1040 0 CCCCCC
I13 boundary_mesh1006 0 I17 boundary_polyline1008 0 CCCA16 index_map_offset0 0 1
 dA9 index_map82 0 A17 node_id_index_map82 0 A20 schema_embedding_map82 0 A5 chi
ld12 0 A14 lowest_node_id0 0 1 dZ1 1134 2 3 0 4 0 0 0 0 1e3 1e-8 0 5 0 1 0 1 1 6
 7 8 9 0 0 10 11 12 0 0 0 0 0 0 81 255 2 2 845 13 1 0 0 0 0 14 0 70 11 CI9 list_
type0 0 1 uI10 notransmit0 0 1 lCCCDCCDI12 finger_index0 0 1 dI12 finger_block10
12 0 CZ3 0 4 T1 0 0 4 20 1 15 15 137 255 4 315 0 1 16 0 0 +17 18 0 ?13 255 6 94
 0 1 0 19 0 0 20 0 50 255 7 89 0 19 21 0 22 +-.0350785340314136 .041243455497382
2 .01 1 1810146235801885e-31 0 -1810146235801885e-31 1 0 31 255 8 729 0 23 24 0
 0 +-785340314135782e-19 .0137434554973822 .0098 0 0 1 1 0 0 .004 29 255 9 560 0
 12 25 0 -.00487853403141358 -.0287565445026178 .01 19 8 CCCCCCCA5 owner12 0 Z10
 28 0 1 20 0 26 V0 16 255 11 553 0 ?27 0 28 29 0 0 1 18 255 12 558 0 30 0 31 9 ?
1 17 255 30 0 32 33 34 12 35 36 0 37 +18 31 541 0 38 12 39 25 ?1 17 38 0 40 41 4
2 31 43 44 0 45 -18 39 343 0 46 31 47 48 ?1 29 25 543 0 31 48 9 .005121465968586
42 -.0287565445026178 .0098 29 48 345 0 39 49 25 .0347214659685864 -.07355654450
26178 0 29 49 201 0 47 50 48 -.0350785340314136 .0412434554973822 .005 18 47 199
 0 51 39 52 49 5e-6 1 29 50 188 0 52 53 49 .0349214659685864 .0412434554973822 .
005 18 52 186 0 54 47 55 50 5e-6 1 29 53 175 0 55 56 50 -.0350785340314136 -.073
7565445026178 .005 18 55 173 0 57 52 58 53 5e-6 1 29 56 170 0 58 59 53 .03492146
59685864 -.0737565445026178 .005 18 58 168 0 60 55 61 56 5e-6 1 29 59 155 0 61 6
2 56 .0299214659685864 -.0687565445026168 .01 18 61 153 0 63 58 64 59 5e-6 1 29
 62 148 0 64 65 59 .0299214659685866 .0362434554973822 .01 18 64 146 0 66 61 67
 62 5e-6 1 29 65 141 0 67 68 62 -.0300785340314136 -.0687565445026196 .01 18 67
 139 0 69 64 70 65 5e-6 1 29 68 138 0 70 71 65 -.0300785340314136 .0362434554973
827 .01 18 70 136 0 72 67 73 68 5e-6 1 29 71 70 0 73 74 68 -.0350785340314136 .0
412434554973822 0 18 73 61 0 75 70 76 71 ?1 29 74 71 0 76 77 71 .034921465968586
4 .0412434554973822 0 18 76 62 0 78 73 79 74 ?1 29 77 72 0 79 80 74 .03492146596
85864 -.0737565445026178 0 18 79 63 0 81 76 82 77 ?1 29 80 73 0 82 83 77 -.03507
85340314136 -.0737565445026178 0 18 82 64 0 84 79 85 80 ?1 29 83 500 0 86 87 80
 -.0348785340314136 -.0735565445026178 0 18 86 379 0 88 89 90 83 ?1 29 87 502 0
 89 91 83 .0347214659685864 .0410434554973822 0 18 89 383 0 92 93 86 87 ?1 29 91
 503 0 93 94 87 -.0348785340314136 .0410434554973822 0 18 93 378 0 95 96 89 91 ?
1 29 94 504 0 97 98 91 .0299214659685864 -.0687565445026168 .0098 18 97 388 0 99
 100 101 94 5e-6 1 29 98 505 0 102 103 94 -.0348785340314136 -.0735565445026178
 .005 18 102 387 0 104 105 100 98 5e-6 1 29 103 506 0 101 106 98 .02992146596858
66 .0362434554973822 .0098 18 101 385 0 107 97 108 103 5e-6 1 29 106 507 0 108 1
09 103 -.0300785340314136 -.0687565445026196 .0098 18 108 384 0 110 101 96 106 5
e-6 1 29 109 508 0 96 111 106 -.0300785340314136 .0362434554973827 .0098 18 96 3
86 0 112 108 93 109 5e-6 1 29 111 509 0 105 113 109 .0347214659685864 .041043455
4973822 .00500000009527732 18 105 382 0 114 85 102 111 5e-6 1 29 113 510 0 100 1
15 111 .0347214659685864 -.0735565445026178 .005 18 100 380 0 116 102 97 113 5e-
6 1 29 115 511 0 85 117 113 -.0348785340314136 .04104345549738225 .005 18 85 377
 0 118 82 105 115 5e-6 1 29 117 685 0 90 119 115 -.00487853403141358 -.003756544
50261779 .0098 18 90 620 0 120 86 121 117 ?1 29 119 686 0 121 122 117 .005121465
96858642 -.00375654450261779 .0098 18 121 622 0 123 90 124 119 ?1 29 122 688 0 1
24 125 119 -.00487853403141358 -.0287565445026178 .0098 18 124 615 0 41 121 126
 122 ?1 29 125 689 0 126 127 122 -.00487853403141358 -.00375654450261779 .01 18
 126 617 0 34 124 128 125 ?1 29 127 690 0 128 129 125 .00512146596858642 -.00375
654450261779 .01 18 128 618 0 130 126 131 127 ?1 29 129 691 0 131 0 127 .0051214
6596858642 -.0287565445026178 .01 18 131 619 0 43 128 0 129 ?1 17 43 0 132 133 4
5 131 38 44 0 42 +15 255 132 638 0 43 134 0 17 133 0 132 135 43 128 136 137 0 13
8 +17 45 0 132 43 135 31 139 140 0 141 -16 44 586 0 ?43 142 143 144 0 0 1 17 42
 0 40 38 37 131 145 146 0 136 +15 40 642 0 37 147 0 17 37 0 40 42 41 12 33 143 0
 145 +17 145 0 148 35 136 12 42 146 0 0 -16 146 606 0 ?42 137 36 149 0 0 1 17 13
6 0 148 145 138 131 133 137 0 0 -15 148 574 0 35 150 151 17 138 0 148 136 35 128
 152 153 0 0 -16 137 609 0 ?133 153 146 154 0 0 1 16 153 612 0 ?152 143 137 155
 0 0 1 30 255 154 678 0 137 149 155 0 +.00512146596858642 -.00375654450261779 .0
1 -1387778780781446e-31 1 0 30 149 679 0 146 156 154 0 +-.00487853403141358 -.02
87565445026178 .01 1 0 0 30 155 677 0 153 154 157 0 +-.00487853403141358 -.00375
654450261779 .01 -1 0 0 30 157 676 0 158 155 159 0 +-.00487853403141358 -.003756
54450261779 -250000000007189e-22 0 0 1 16 158 582 0 ?34 160 142 157 0 0 1 30 159
 675 0 142 157 144 0 +.00512146596858642 -.00375654450261779 -250000000007189e-2
2 0 0 1 16 142 584 0 ?130 158 44 159 0 0 1 30 144 674 0 44 159 161 0 +.005121465
96858642 -.0287565445026178 -250000000007189e-22 0 0 1 30 161 673 0 143 144 162
 0 +-.00487853403141358 -.0287565445026178 -250000000007189e-22 0 0 1 16 143 580
 0 ?37 44 153 161 0 0 1 133 255 162 499 0 163 161 164 0 +164 -.0348785340314136
 .04104345549738225 .005 -.0348785340314136 -.0735565445026178 .005 .99826086956
5214 .00173913043479024 17 163 0 165 88 166 102 118 167 162 168 -137 164 498 0 1
 162 169 170 -171 172 0 ?133 169 497 0 118 164 173 0 +173 -.0348785340314136 -.0
735565445026178 .005 -.0348785340314136 .04104345549738225 .005 .998260869565215
 .00173913043478386 141 255 170 162 170 170 164 50 171 438 0 174 175 176 177 +-.
0348785340314136 .0412434554973822 .01 1 1810146235801885e-31 0 -181014623580188
5e-31 1 0 134 255 172 0 0 0 0 0 0 +178 179 136 255 178 1 2 2 2 5 FFF1 180 181 18
2 135 255 179 2 0 45 255 4 180 -.115 -.005 4440892098500625e-31 -.005 127 255 2
 181 2 2 128 255 2 182 0 1 14 255 174 389 183 ?184 185 165 6 171 +0 0 184 185 26
 124 255 175 439 186 187 17 171 188 +189 190 60 255 176 437 0 191 171 192 193 +U
F17 -2e-4 ?141 177 164 177 177 171 14 191 416 194 ?195 196 197 6 176 -0 0 195 19
6 26 50 192 436 0 184 176 198 199 +-.0350785340314136 -.0735565445026178 .01 0 1
 0 0 0 1 141 193 173 200 201 176 124 17 441 202 203 204 175 205 +206 207 81 2 20
2 442 208 17 0 0 186 209 210 211 14 203 231 212 ?213 187 214 6 17 +0 0 213 187 2
6 124 204 443 209 213 215 17 216 +217 218 141 205 176 219 220 17 126 255 206 FF2
 3 3 8 5 1 2 4 TFF11 4 221 222 223 224 225 125 255 207 0 1 -.0795065445026178 .0
469934554973822 0 1 -.0795065445026178 .0469934554973822 2 BBBBBBBB????0 0 0 0 4
5 96 221 -.0350785340314136 -.0795065445026178 .005 1 -.0350785340314136 -.07592
32111692844 .005 1 -.0350785340314136 -.0723398778359511 .005 1 -.03507853403141
36 -.0337565445026178 .005 1 -.0350785340314136 .001243455497382216 .005 1 -.035
0785340314136 .03982678883071555 .005 1 -.0350785340314136 .04341012216404885 .0
05 1 -.0350785340314136 .0469934554973822 .005 1 -.0087696335078534 -.0198766361
2565445 .0025 .25 -.0087696335078534 -.0189808027923211 .0025 .25 -.008769633507
8534 -.0180849694589878 .0025 .25 -.0087696335078534 -.00843913612565445 .0025 .
25 -.0087696335078534 .000310863874345554 .0025 .25 -.0087696335078534 .00995669
720767889 .0025 .25 -.0087696335078534 .01085253054101222 .0025 .25 -.0087696335
078534 .01174836387434556 .0025 .25 -.0300785340314136 -.0795065445026178 .01 1
 -.0300785340314136 -.0759232111692844 .01 1 -.0300785340314136 -.07233987783595
11 .01 1 -.0300785340314136 -.0337565445026178 .01 1 -.0300785340314136 .0012434
55497382216 .01 1 -.0300785340314136 .03982678883071555 .01 1 -.0300785340314136
 .04341012216404885 .01 1 -.0300785340314136 .0469934554973822 .01 1 127 2 222 3
 3 127 4 223 4 2 2 4 128 2 224 0 1 128 4 225 -.0795065445026178 -.06875654450261
78 .03624345549738225 .0469934554973822 141 219 226 227 205 17 141 220 228 205 2
29 17 137 228 277 0 1 230 231 232 +17 233 0 ?141 229 234 220 235 17 137 234 275
 0 1 231 236 237 +17 238 0 ?141 235 239 229 240 17 137 239 271 0 1 241 242 243 +
17 244 0 ?141 240 245 235 246 17 137 245 313 0 1 0 16 0 +17 247 0 ?141 246 16 24
0 227 17 137 16 314 0 1 245 4 0 +17 248 0 ?141 227 4 246 219 17 134 248 0 0 0 0
 0 0 +249 250 136 249 1 2 2 2 1 FFF1 251 252 253 135 250 1 0 45 4 251 .5 -.07950
65445026178 .5 .0469934554973822 127 2 252 2 2 128 2 253 -.0795065445026178 .046
9934554973822 134 247 0 0 0 0 0 0 +254 255 136 254 1 2 2 2 1 FFF1 256 257 258 13
5 255 1 0 45 4 256 .5 -.0795065445026178 .5 .0469934554973822 127 2 257 2 2 128
 2 258 -.0795065445026178 .0469934554973822 133 241 272 0 259 260 239 0 +239 -.0
350785340314136 .04124345549738235 .005 -.0350785340314136 -.0737565445026181 .0
05 0 1 133 242 270 0 261 239 262 0 +262 .0349214659685864 .0412434554973822 .005
 -.03507853403141355 .0412434554973822 .005 0 1 141 243 241 243 243 239 134 244
 0 0 0 0 0 0 +263 264 136 263 1 2 2 2 5 FFF1 265 266 267 135 264 2 0 45 4 265 0
 .0412434554973824 0 -.0737565445026181 127 2 266 2 2 128 2 267 0 1 17 261 0 268
 269 270 47 54 271 242 272 -137 262 269 0 1 242 273 274 +175 275 0 ?133 273 268
 0 276 262 277 0 +277 -.0300785340314134 .0362434554973822 .01 .0299214659685865
 .03624345549738225 .01 0 1 141 274 242 274 274 262 134 275 0 0 0 0 0 0 +278 279
 136 278 1 2 2 2 5 FFF1 280 281 282 135 279 2 0 45 4 280 0 .03492146596858645 0
 -.03507853403141355 127 2 281 2 2 128 2 282 0 1 17 276 0 268 270 269 64 72 283
 273 284 -137 277 267 0 1 273 285 286 +175 287 0 ?30 285 544 0 288 277 289 0 +0
 -.0287565445026178 .0098 1 0 0 141 286 273 286 286 277 134 287 0 0 0 0 0 0 +290
 291 136 290 1 2 2 2 5 FFF1 292 293 294 135 291 2 0 45 4 292 1 -.030078534031413
4 1 .0299214659685865 127 2 293 2 2 128 2 294 0 1 16 288 542 0 ?141 140 295 285
 0 0 1 30 289 548 0 140 285 296 0 +.00512146596858642 710746179769852e-33 .0098
 -1387778780781446e-31 1 0 16 140 546 0 ?139 28 288 289 0 0 1 30 296 552 0 28 28
9 29 0 +0 -.00375654450261779 .0098 -1 0 0 16 28 550 0 ?297 11 140 296 0 0 1 30
 29 555 0 11 296 24 0 +-.00487853403141359 -677032601011594e-33 .0098 1387778780
781446e-31 -1 0 31 24 723 0 298 29 8 0 +0 -.0462565445026178 .0098 0 0 1 1 0 0 .
004 16 298 769 0 ?299 23 300 24 0 0 1 17 299 0 301 299 299 0 302 298 0 0 +16 23
 745 0 ?303 36 298 8 0 0 1 16 300 749 0 ?304 298 305 306 0 0 1 17 304 0 307 304
 304 0 308 300 0 0 +16 305 773 0 ?309 300 0 310 0 0 1 31 306 804 0 300 0 310 0 +
-785340314135782e-19 .0137434554973822 .01 0 0 1 1 0 0 .004 31 310 802 0 305 306
 156 0 +0 -.0462565445026178 .01 0 0 1 1 0 0 .004 30 156 680 0 36 310 149 0 +-.0
0487853403141358 -.00375654450261779 .01 1387778780781446e-31 -1 0 16 36 603 0 ?
30 146 23 156 0 0 1 17 309 0 311 309 309 0 312 305 0 0 +15 311 779 0 309 313 314
 17 312 0 315 312 312 0 309 305 0 0 -15 315 734 0 312 150 148 14 150 1 316 ?317
 318 319 6 320 +0 0 317 318 26 81 1 316 1113 321 150 322 0 212 323 324 14 317 43
 323 ?187 150 325 6 326 -0 0 187 150 26 14 318 79 327 ?150 328 329 6 330 -0 0 15
0 328 26 15 319 740 0 308 150 315 50 320 2 0 150 331 326 332 +0 0 .01 0 0 1 1 0
 0 13 26 29 0 0 0 0 0 0 10 19 14 19 85 333 ?334 0 335 6 7 -0 0 334 0 26 81 1 333
 1116 321 19 336 0 327 337 338 14 334 83 337 ?328 19 339 6 21 -0 0 328 19 26 15
 335 84 0 340 19 0 17 340 0 335 51 341 55 84 342 0 0 -17 51 0 335 75 340 47 259
 295 343 344 +17 341 0 335 340 75 82 345 346 0 0 +17 84 0 339 347 348 82 340 342
 0 349 +16 342 174 0 ?84 350 351 352 0 0 1 16 350 140 0 5e-6 69 283 342 0 0 0 1
 16 351 169 0 ?81 342 353 354 0 0 1 133 352 176 0 342 354 355 0 +356 -.035078534
0314136 -.0737565445026178 .005 -.0350785340314136 -.0737565445026178 0 .005 .01
 133 354 171 0 351 357 352 0 +358 .0349214659685864 -.0737565445026178 .005 .034
9214659685864 -.0737565445026178 0 .005 .01 133 355 180 0 348 352 359 0 +359 .03
49214659685866 -.0737565445026178 .005 -.0350785340314134 -.0737565445026178 .00
5 0 1 30 356 93 0 1 358 360 361 +-.0350785340314136 -.0737565445026178 .01 0 0 -
1 30 358 92 0 1 362 356 363 +.0349214659685864 -.0737565445026178 .01 0 0 -1 133
 360 142 0 69 356 364 0 +364 -.0300785340314136 .0362434554973827 .01 -.03007853
40314136 -.0687565445026196 .01 0 1 141 361 352 361 361 356 17 69 0 151 365 72 6
7 366 350 360 367 +137 364 143 0 1 360 368 369 +320 370 0 ?133 368 149 0 72 364
 371 0 +371 .0299214659685866 .0362434554973822 .01 -.030078534031413 .036243455
4973822 .01 0 1 141 369 360 369 369 364 134 370 0 0 0 0 0 0 +372 373 136 372 1 2
 2 2 5 FFF1 374 375 376 135 373 2 0 45 4 374 -.0300785340314136 .036243455497382
7 -.0300785340314136 -.0687565445026196 127 2 375 2 2 128 2 376 0 1 17 72 0 151
 69 66 70 276 283 368 269 +137 371 150 0 1 368 377 378 +320 379 0 ?133 377 156 0
 66 371 380 0 +380 .0299214659685864 -.0687565445026168 .01 .0299214659685864 .0
3624345549738175 .01 0 1 141 378 368 378 378 371 134 379 0 0 0 0 0 0 +381 382 13
6 381 1 2 2 2 5 FFF1 383 384 385 135 382 2 0 45 4 383 .0299214659685866 .0362434
554973822 -.030078534031413 .0362434554973822 127 2 384 2 2 128 2 385 0 1 17 66
 0 151 72 365 64 386 387 377 276 +137 380 157 0 1 377 388 389 +320 390 0 ?133 38
8 162 0 365 380 357 0 +357 -.0300785340314125 -.0687565445026178 .01 .0299214659
6858735 -.0687565445026178 .01 0 1 141 389 377 389 389 380 134 390 0 0 0 0 0 0 +
391 392 136 391 1 2 2 2 5 FFF1 393 394 395 135 392 2 0 45 4 393 .029921465968586
4 -.0687565445026168 .0299214659685864 .03624345549738175 127 2 394 2 2 128 2 39
5 0 1 17 365 0 151 66 69 61 396 397 388 0 +137 357 163 0 1 388 354 398 +320 399
 0 ?141 398 388 398 398 357 134 399 0 0 0 0 0 0 +400 401 136 400 1 2 2 2 5 FFF1
 402 403 404 135 401 2 0 45 4 402 -.0300785340314125 -.0687565445026178 .0299214
6596858735 -.0687565445026178 127 2 403 2 2 128 2 404 0 1 15 151 137 0 69 150 0
 17 396 0 405 57 63 67 365 397 406 0 -16 397 160 0 5e-6 365 407 387 0 0 0 1 16 4
07 178 0 5e-6 348 408 397 0 0 0 1 16 387 154 0 5e-6 66 397 283 0 0 0 1 16 283 14
7 0 5e-6 72 387 350 0 0 0 1 17 348 0 339 84 409 55 410 407 355 340 +16 408 191 0
 5e-6 60 271 407 0 0 0 1 17 60 0 411 81 412 58 413 408 414 409 +16 271 204 0 5e-
6 54 295 408 0 0 0 1 17 54 0 329 78 344 52 261 271 415 412 +16 295 212 0 5e-6 51
 288 271 0 0 0 1 15 329 78 0 344 318 0 17 78 0 329 416 54 76 412 353 0 417 +17 3
44 0 329 54 416 47 75 418 0 261 -133 415 206 0 54 419 420 0 +420 -.0350785340314
135 .0412434554973822 .005 .0349214659685865 .0412434554973822 .005 0 1 17 412 0
 411 60 417 52 78 353 0 270 -15 411 80 0 412 328 0 17 417 0 411 412 81 76 421 42
2 0 423 +16 353 187 0 ?78 351 418 424 0 0 1 17 270 0 268 261 276 52 284 425 426
 413 -15 268 230 0 270 187 0 17 284 0 427 386 413 64 270 425 428 0 +16 425 245 0
 5e-6 284 429 430 0 0 0 1 133 426 282 0 270 431 432 0 +432 .0299214659685864 .03
624345549738225 .01 .0349214659685864 .0412434554973822 .005 0 1 17 413 0 427 28
4 433 52 60 408 434 0 -15 427 234 0 284 213 0 17 433 0 427 413 386 58 63 435 436
 0 -133 434 286 0 413 437 438 0 +438 .0349214659685864 -.0737565445026177 .005 .
0349214659685864 .04124345549738205 .005 0 1 137 437 287 0 1 439 434 440 +215 44
1 0 ?137 438 285 0 1 434 428 442 +204 443 0 ?133 428 284 0 284 438 431 0 +431 .0
349214659685864 .04124345549738225 .005 .0299214659685864 .0362434554973819 .01
 0 1 141 442 434 442 442 438 134 443 0 0 0 0 0 0 +444 445 136 444 1 2 2 2 5 FFF1
 446 447 448 135 445 2 0 45 4 446 3469446951953615e-31 .0737565445026176 3469446
951953615e-31 -.04124345549738205 127 2 447 2 2 128 2 448 0 1 137 431 283 0 1 42
8 426 449 +204 450 0 ?141 449 428 449 449 431 134 450 0 0 0 0 0 0 +451 452 136 4
51 2 19 2 10 5 FFF1 453 454 455 135 452 2 0 45 38 453 0 -.0412434554973822 .0886
665362773415 -.0412434554973822 .1621620012666485 -.0410783182442203 .1979986453
580745 -.04099779674580325 .232386421384269 -.04087479379863835 .289771679154290
5 -.040669530282203 .3478900533130415 -.04032617218500865 .3900317658051905 -.04
007720275970625 .4377922865653175 -.03972426828814425 .471668879244025 -.0394739
3145879035 .519439360389885 -.03908687337980255 .560214911746433 -.0387564913907
7585 .600990437614146 -.03842297842183285 .645418342692309 -.03805959175271655 .
690922300037606 -.0377316871586296 .749731503844968 -.03730790405869615 .8040566
23658326 -.03701059133714735 .897326810572258 -.03650013847103285 1 -.0362434554
973819 127 10 454 3 2 2 2 2 2 2 2 2 3 128 10 455 0 .0714285714285714 .125 .25 .3
75 .5 .625 .75 .875 1 133 439 288 0 410 226 437 0 +437 -.0350785340314135 -.0737
565445026178 .005 .0349214659685866 -.0737565445026178 .005 0 1 141 440 439 440
 440 437 124 215 445 456 185 457 204 458 +459 460 134 441 0 0 0 0 0 0 +461 462 1
36 461 1 2 2 2 5 FFF1 463 464 465 135 462 2 0 45 4 463 0 .0350785340314135 0 -.0
349214659685866 127 2 464 2 2 128 2 465 0 1 81 2 456 446 208 215 0 0 209 0 466 4
67 14 185 235 468 ?174 213 405 6 215 +0 0 174 213 26 50 457 667 0 469 470 215 0
 +-.00487853403141358 -.00375654450261779 -250000000007189e-22 -1 -1387778780781
446e-31 0 1387778780781446e-31 -1 0 141 458 198 471 472 215 126 459 FF2 3 3 8 5
 1 2 4 TFF11 4 473 474 475 476 477 125 460 0 1 -.0384214659685864 .0385785340314
136 0 1 -.0384214659685864 .0385785340314136 2 BBBBBBBB????0 0 0 0 45 96 473 .03
84214659685864 -.0737565445026178 .005 1 .03558813263525305 -.0737565445026178 .
005 1 .03275479930191975 -.0737565445026178 .005 1 .00992146596858641 -.07375654
45026178 .005 1 -.0100785340314136 -.0737565445026178 .005 1 -.0329118673647469
 -.0737565445026178 .005 1 -.03574520069808025 -.0737565445026178 .005 1 -.03857
85340314136 -.0737565445026178 .005 1 .0096053664921466 -.01843913612565445 .002
5 .25 .00889703315881327 -.01843913612565445 .0025 .25 .00818869982547993 -.0184
3913612565445 .002499999999999385 .25 .0024803664921466 -.01843913612565445 .002
500000000004335 .25 -.0025196335078534 -.01843913612565445 .002499999999995665 .
25 -.00822796684118673 -.01843913612565445 .002500000000000615 .25 -.00893630017
452007 -.01843913612565445 .0025 .25 -.0096446335078534 -.01843913612565445 .002
5 .25 .0384214659685864 -.0687565445026178 .01 1 .03558813263525305 -.0687565445
026178 .01 1 .03275479930191975 -.0687565445026178 .01 1 .00992146596858641 -.06
87565445026178 .01 1 -.0100785340314136 -.0687565445026178 .01 1 -.0329118673647
469 -.0687565445026178 .01 1 -.03574520069808025 -.0687565445026178 .01 1 -.0385
785340314136 -.0687565445026178 .01 1 127 2 474 3 3 127 4 475 4 2 2 4 128 2 476
 0 1 128 4 477 -.0384214659685864 -.0299214659685864 .0300785340314136 .03857853
40314136 60 198 435 0 478 192 479 480 +UF215 -2e-4 ?141 471 481 482 458 215 141
 472 483 458 484 215 137 483 293 0 1 406 485 486 +215 487 0 ?141 484 488 472 482
 215 137 488 291 0 1 485 489 490 +215 491 0 ?141 482 437 484 471 215 133 485 292
 0 57 483 488 0 +488 -.03007853403141285 -.0687565445026178 .01 -.03507853403141
36 -.0737565445026178 .005 0 1 133 489 290 0 367 488 226 0 +226 -.03507853403141
36 -.0737565445026178 .005 -.0300785340314136 -.0687565445026178 .01 0 1 141 490
 485 490 490 488 134 491 0 0 0 0 0 0 +492 493 136 492 2 17 2 9 5 FFF1 494 495 49
6 135 493 2 0 45 34 494 1 .03007853403141285 .897326810595352 .03033521700493785
 .804056623658345 .0308456698711785 .749731503844975 .0311429825927273 .69092230
0037608 .03156676569266075 .652129785337474 .0318463071771482 .600990437614143 .
03225805695586405 .560214869353542 .03258636249662195 .519439360389878 .03292195
191383375 .4222061214677765 .033722198110946 .3478900533130305 .0341612507190399
5 .2897716791542785 .0345046088162343 .2323864213842595 .0347098723326697 .20057
6911968352 .0348236529796951 .167566296342405 .0349009948874563 .091790088987523
7 .03507853403141355 0 .03507853403141355 127 9 495 3 2 2 2 2 2 2 2 3 128 9 496
 0 .125 .25 .375 .5 .75 .875 .925 1 17 367 0 214 366 259 67 57 430 489 396 -137
 226 289 0 1 489 439 497 +17 498 0 ?141 497 489 497 497 226 134 498 0 0 0 0 0 0
 +499 500 136 499 2 19 2 10 5 FFF1 501 502 503 135 500 2 0 45 38 501 0 -.0737565
445026178 .0886665362773454 -.0737565445026178 .162162001266653 -.07359140724945
59 .197998645358095 -.0735108857510388 .2323864213842765 -.073387882803874 .2897
71679154291 -.0731826192874387 .347890053313052 -.0728392611902443 .390031765805
2105 -.0725902917649419 .437792286565334 -.0722373572933799 .471668879244044 -.0
71987020464026 .519439360389906 -.0715999623850382 .560214911746456 -.0712695803
960115 .600990437614172 -.0709360674270685 .645418342692391 -.0705726807579517 .
690922300037635 -.0702447761638651 .749731503845008 -.0698209930639316 .80405662
3658365 -.0695236803423828 .897326810604113 -.0690132274760942 1 -.0687565445026
178 127 10 502 3 2 2 2 2 2 2 2 2 3 128 10 503 0 .0714285714285714 .125 .25 .375
 .5 .625 .75 .875 1 15 214 232 0 272 203 0 17 366 0 214 272 367 70 69 350 230 0
 -17 259 0 214 367 272 55 51 295 241 348 -17 57 0 405 410 396 55 367 430 485 259
 +16 430 248 0 5e-6 57 425 435 0 0 0 1 16 435 250 0 5e-6 63 430 167 0 0 0 1 17 6
3 0 405 396 410 61 433 435 504 386 +16 167 357 0 5e-6 118 435 505 0 0 0 1 17 118
 0 197 506 104 85 163 167 169 166 +16 505 366 0 5e-6 114 167 507 0 0 0 1 17 114
 0 508 509 510 105 511 505 512 513 +16 507 363 0 5e-6 116 505 514 0 0 0 1 17 116
 0 515 99 516 100 517 507 518 519 +16 514 360 0 5e-6 168 507 520 0 0 0 1 17 168
 0 521 522 523 102 524 514 525 526 +16 520 370 0 5e-6 527 514 528 0 0 0 1 17 527
 0 521 523 522 97 529 520 530 0 +16 528 371 0 5e-6 107 520 531 0 0 0 1 17 107 0
 515 516 99 101 532 528 533 534 +16 531 372 0 5e-6 112 528 535 0 0 0 1 17 112 0
 508 510 509 96 534 531 536 506 +16 535 369 0 5e-6 110 531 537 0 0 0 1 17 110 0
 197 104 506 108 538 535 539 522 +16 537 361 0 ?88 535 540 541 0 0 1 17 88 0 165
 542 163 86 526 537 0 543 +16 540 364 0 ?544 537 545 546 0 0 1 133 541 463 0 537
 547 548 0 +548 -.0348785340314136 -.0735565445026178 .005 -.0348785340314136 -.
0735565445026178 0 .005 .01 30 547 464 0 549 550 541 0 +-.0350785340314136 -.073
5565445026178 0 1 0 0 30 548 462 0 1 541 551 552 +-.0348785340314136 -.073556544
5026178 .01 0 0 -1 133 551 461 0 553 548 554 0 +554 -.0348785340314136 .04104345
54973822 .005 -.0348785340314136 .0410434554973822 0 .005 .01 141 552 541 552 55
2 548 16 553 358 0 ?95 545 555 551 0 0 1 30 554 460 0 1 551 546 556 +-.034878534
0314136 .0410434554973822 .01 0 0 -1 133 546 459 0 540 554 557 0 +557 .034721465
9685864 -.0735565445026178 .005 .0347214659685864 -.0735565445026178 0 .005 .01
 141 556 551 556 556 554 30 557 458 0 1 546 558 559 +.0347214659685864 -.0735565
445026178 .01 0 0 -1 133 558 457 0 545 557 560 0 +560 .0347214659685864 .0410434
554973822 .00500000009527732 .0347214659685864 .0410434554973822 0 .004999999904
72269 .01 141 559 546 559 559 557 16 545 367 0 ?92 540 553 558 0 0 1 30 560 456
 0 1 558 561 562 +.0347214659685864 .0410434554973822 .01 0 0 -1 133 561 455 0 5
63 560 564 0 +564 .03472146596858645 .04104345549738225 .00500000009527735 .0299
2146596858655 .0362434554973822 .0098 .00857974975614654 -412311754210064e-20 14
1 562 558 562 562 560 16 563 374 0 ?509 565 566 561 0 0 1 38 12 CCCCCCCCCCCA17 i
ntersection_data204 0 Z564 454 0 1 561 567 568 -569 570 571 572 573 574 133 567
 453 0 565 564 575 0 +575 -.03007853403141355 .03624345549738255 .0098 -.0348785
3403141365 .04104345549738225 .005 -412311754208592e-20 .00857974985228728 141 5
68 561 568 568 564 60 569 431 0 196 576 331 577 +UF175 -2e-4 ?60 570 433 0 195 4
79 576 578 +UF204 -2e-4 ?40 255 8 571 0 1 8 .000624703376371099 .303782431496339
 ??.02992438144453385 .03624637097332965 .0097999900870825 .03034900917564155 .0
3667099870443735 .00968851856766204 .0320679283736614 .0383899179024572 .0085218
0551339014 .0326723762040928 .03899436573288865 .00796508332698279 .034450670691
55015 .04077266022034595 .00575295873799451 .0346450758619396 .04096706539073545
 .00533872754861193 .03471172188267165 .0410337114114675 .0051026974874856 .0347
214659685864 .0410434554973822 .004092434891829315 41 3 CI8 term_use0 0 1 cCZ2 5
72 TF.0299214659685864 .03624345549738225 .0098 .02992438144453385 .036246370973
32965 .0097999900870825 41 1 573 L?.0347214659685864 .0410434554973822 .00409243
4891829315 204 2 17 INTERSECTION_DATA17 Intersection data7 uv_type0 0 1 u6 value
s0 1 1 fT36 574 4 1 .0299214659685864 1 -.03624345549738225 .998299404172295 .02
992438144453385 .998299404172293 -.03624637097332965 .856094612869977 .030349009
17564155 .856094612869973 -.03667099870443735 .588891369934566 .0320679283736613
5 .588891369934566 -.0383899179024572 .513584012080266 .0326723762040928 .513584
012080266 -.03899436573288865 .210655391171047 .03445067069155015 .2106553911710
475 -.04077266022034595 .1220911210221112 .0346450758619396 .122091121022111 -.0
409670653907354 .0484692740726183 .0347117218826717 .0484692740726193 -.04103371
14114675 -.3630260432682745 .0347214659685864 -.363026043268275 -.04104345549738
22 14 195 420 579 ?478 191 515 6 570 -0 0 478 191 26 50 479 434 0 580 198 570 58
1 +.0347214659685864 .0412434554973822 .01 -1 0 0 0 0 1 50 576 432 0 582 570 569
 583 +-.0350785340314136 .0410434554973822 .01 0 -1 0 0 0 -1 141 578 584 585 586
 570 137 584 488 0 1 518 587 588 -570 589 0 ?141 585 590 591 578 570 141 586 564
 578 591 570 141 591 592 586 585 570 137 592 468 0 1 533 593 594 -570 595 0 ?133
 533 469 0 107 596 592 0 +592 .0299214659685864 -.0687565445026173 .0098 .029921
4659685864 .03624345549738175 .0098 1 0 30 593 467 0 597 592 598 0 +-.0348785340
314136 .0412434554973822 0 1810146235801885e-31 -1 0 141 594 533 594 594 592 134
 595 0 0 0 0 0 0 +599 600 136 599 1 2 2 2 5 FFF1 601 602 603 135 600 2 0 45 4 60
1 1 -.03624345549738175 1 .0687565445026173 127 2 602 2 2 128 2 603 0 1 16 597 3
59 0 ?604 549 565 593 0 0 1 30 598 466 0 555 593 550 0 +-.0350785340314136 .0410
434554973822 0 -1 0 0 16 555 368 0 ?605 553 606 598 0 0 1 30 550 465 0 606 598 5
47 0 +.0347214659685864 .0412434554973822 0 0 1 0 16 606 365 0 ?607 555 549 550
 0 0 1 17 607 0 325 605 608 89 46 606 0 0 +16 549 362 0 ?608 606 597 547 0 0 1 1
7 608 0 325 607 604 39 543 549 0 0 +15 325 341 0 605 317 609 17 604 0 325 608 60
5 86 542 597 0 0 +17 543 0 610 526 544 86 608 549 0 604 -15 610 396 0 544 184 0
 17 526 0 610 524 543 102 88 537 0 0 -17 544 0 610 543 524 39 519 540 0 608 +17
 524 0 610 544 526 100 168 514 611 523 -17 519 0 612 517 46 100 544 540 0 524 -1
5 612 400 0 92 580 0 17 517 0 612 92 519 105 116 507 613 0 -17 46 0 612 519 92 3
9 607 606 0 544 -17 92 0 612 46 517 89 513 545 0 614 +17 513 0 615 511 614 105 9
2 545 0 516 -17 614 0 615 513 95 89 605 555 0 607 -15 615 404 0 95 582 0 17 95 0
 615 614 511 93 166 553 0 542 +17 605 0 325 604 607 93 614 555 0 0 +17 511 0 615
 95 513 85 114 505 587 510 -17 166 0 165 163 542 85 95 553 0 511 -17 542 0 165 1
66 88 93 604 597 0 605 -15 165 392 0 88 174 0 133 587 487 0 511 584 616 0 +616 .
0347214659685864 .0410434554973822 .005 -.0348785340314136 .0410434554973822 .00
5 .997142857142856 .002857142857141255 17 510 0 508 114 112 85 506 565 0 0 +15 5
08 415 0 509 196 0 17 506 0 197 110 118 96 510 565 0 538 -16 565 373 0 ?510 597
 563 567 0 0 1 15 197 419 0 506 191 0 17 538 0 617 534 529 96 110 535 618 0 -15
 617 408 0 538 619 0 17 534 0 617 532 538 101 112 531 620 509 -17 529 0 617 538
 532 108 527 520 621 0 -133 618 479 0 538 622 623 0 +623 -.0300785340314136 -.06
87565445026196 .0098 -.0300785340314136 .0362434554973827 .0098 1 0 137 622 480
 0 1 536 618 624 -569 625 0 ?137 623 478 0 1 618 539 626 -331 627 0 ?133 539 477
 0 110 623 628 0 +628 -.0300785340314136 .03624345549738275 .0098 -.030078534031
4136 -.0687565445026187 .0098 1 0 141 626 618 626 626 623 50 331 430 0 619 569 3
20 629 +0 0 .0098 0 0 1 1 0 0 134 627 0 0 0 0 0 0 +630 631 136 630 1 2 2 2 5 FFF
1 632 633 634 135 631 2 0 45 4 632 -.0300785340314136 .0362434554973827 -.030078
5340314136 -.0687565445026196 127 2 633 2 2 128 2 634 0 1 14 619 405 635 ?196 58
2 636 6 331 -0 0 196 582 26 141 629 637 638 639 331 137 637 482 0 1 620 536 640
 -331 641 0 ?141 638 596 642 629 331 141 639 623 629 642 331 141 642 643 639 638
 331 137 643 474 0 1 621 530 644 -331 645 0 ?133 621 475 0 529 628 643 0 +643 .0
2992146596858735 -.0687565445026178 .0098 -.0300785340314125 -.0687565445026178
 .0098 1 0 133 530 473 0 527 643 646 0 +646 -.0300785340314125 -.068756544502617
8 .0098 .02992146596858735 -.0687565445026178 .0098 1 0 141 644 621 644 644 643
 134 645 0 0 0 0 0 0 +647 648 136 647 1 2 2 2 5 FFF1 649 650 651 135 648 2 0 45
 4 649 -.0300785340314125 -.0687565445026178 .02992146596858735 -.06875654450261
78 127 2 650 2 2 128 2 651 0 1 137 646 472 0 1 530 652 653 -198 654 0 ?133 652 4
71 0 532 646 596 0 +596 .0299214659685864 .03624345549738175 .0098 .029921465968
5864 -.0687565445026168 .0098 1 0 141 653 530 653 653 646 134 654 0 0 0 0 0 0 +6
55 656 136 655 1 2 2 2 5 FFF1 657 658 659 135 656 2 0 45 4 657 .999999999999989
 -.02992146596858735 .999999999999989 .0300785340314125 127 2 658 2 2 128 2 659
 0 1 17 532 0 617 529 534 97 107 528 652 527 -137 596 470 0 1 652 533 660 -331 6
61 0 ?141 660 652 660 660 596 134 661 0 0 0 0 0 0 +662 663 136 662 1 2 2 2 5 FFF
1 664 665 666 135 663 2 0 45 4 664 .0299214659685864 -.0687565445026168 .0299214
659685864 .03624345549738175 127 2 665 2 2 128 2 666 0 1 137 628 476 0 1 539 621
 667 -176 668 0 ?141 667 539 667 667 628 134 668 0 0 0 0 0 0 +669 670 136 669 1
 2 2 2 5 FFF1 671 672 673 135 670 2 0 45 4 671 1 -.0687565445026187 1 .036243455
49738275 127 2 672 2 2 128 2 673 0 1 133 620 483 0 534 674 637 0 +637 -.03007853
4031413 .0362434554973822 .0098 .0299214659685866 .0362434554973822 .0098 1 0 13
3 536 481 0 112 637 622 0 +622 .0299214659685865 .03624345549738225 .0098 -.0300
785340314134 .0362434554973822 .0098 1 0 141 640 620 640 640 637 134 641 0 0 0 0
 0 0 +675 676 136 675 1 2 2 2 5 FFF1 677 678 679 135 676 2 0 45 4 677 .029921465
9685866 .0362434554973822 -.030078534031413 .0362434554973822 127 2 678 2 2 128
 2 679 0 1 137 674 484 0 1 512 620 680 -569 681 0 ?133 512 485 0 114 616 674 0 +
674 -.0348785340314136 .0410434554973822 .005 .0347214659685864 .041043455497382
2 .005 .997142857142858 .00285714285714284 141 680 512 680 680 674 134 681 0 0 0
 0 0 0 +682 683 136 682 1 2 2 2 5 FFF1 684 685 686 135 683 2 0 45 4 684 0 .03492
146596858645 0 -.03507853403141355 127 2 685 2 2 128 2 686 0 1 137 616 486 0 1 5
87 512 687 -576 688 0 ?141 687 587 687 687 616 134 688 0 0 0 0 0 0 +689 690 136
 689 1 2 2 2 5 FFF1 691 692 693 135 690 2 0 45 4 691 .005 1110223024625156e-31 .
005 .07 127 2 692 2 2 128 2 693 0 1 81 1 635 1120 321 619 694 0 579 695 696 14 1
96 412 695 ?191 619 508 6 569 -0 0 191 619 26 14 582 401 697 ?619 580 615 6 576
 +0 0 619 580 26 15 636 727 0 303 619 301 17 303 0 636 303 303 0 698 23 0 0 +15
 301 721 0 299 619 699 15 699 539 0 297 619 617 17 297 0 699 27 139 90 123 28 0
 0 +17 27 0 699 141 297 124 120 11 0 0 +17 139 0 699 297 141 121 45 140 0 0 +17
 123 0 700 130 701 121 297 28 0 135 -15 700 634 0 130 702 0 17 130 0 700 152 123
 128 135 142 0 133 +17 701 0 700 123 152 90 34 158 0 297 -17 135 0 132 45 133 12
1 130 142 0 139 -17 152 0 700 701 130 126 138 153 0 35 +17 34 0 32 30 120 126 70
1 158 0 152 +15 32 630 0 34 469 0 17 120 0 32 34 33 90 27 11 0 701 -17 33 0 32 1
20 30 124 37 143 0 27 -14 469 627 703 ?702 478 32 6 457 -0 0 702 478 26 81 1 703
 1123 321 469 704 0 697 705 706 14 702 631 705 ?134 469 700 6 707 -0 0 134 469 2
6 14 478 424 708 ?469 195 521 6 198 -0 0 469 195 26 81 1 708 1125 321 478 709 0
 705 710 711 15 521 427 0 522 478 0 17 522 0 521 527 168 108 104 566 0 529 -17 1
04 0 197 118 110 102 522 566 0 163 +16 566 375 0 ?104 563 160 712 0 0 1 16 160 3
76 0 ?99 566 158 713 0 0 1 133 712 451 0 566 575 714 0 +714 -.0300785340314147 -
.0687565445026176 .0098 -.0348785340314136 -.0735565445026178 .005 -412311754210
064e-20 .00857974985228741 38 575 452 0 1 567 712 715 +176 569 716 717 718 719 3
8 714 450 0 1 712 713 720 +198 176 721 722 723 724 133 713 449 0 160 714 590 0 +
590 .03472146596858645 -.0735565445026178 .005 .02992146596858655 -.068756544502
6172 .0098 .00857974985228726 -412311754209082e-20 141 720 712 720 720 714 40 8
 721 0 1 8 .000624703376370366 .30378243149613 ??-.030081449507361 -.06875945997
85653 .0097999900870825 -.03050607723846815 -.0691840877096725 .0096885185676622
5 -.03222499643648685 -.0709030069076912 .00852180551339165 -.0328294442669198 -
.0715074547381243 .00796508332698298 -.0346077387543768 -.0732857492255811 .0057
5295873799538 -.03480214392476645 -.0734801543959707 .00533872754861287 -.034868
7899454986 -.0735468004167028 .00510269748748719 -.0348785340314136 -.0735565445
026178 .004092434891875795 41 2 722 TF-.0300785340314136 -.0687565445026178 .009
8 -.030081449507361 -.0687594599785653 .0097999900870825 41 1 723 L?-.0348785340
314136 -.0735565445026178 .004092434891875795 204 36 724 4 1 .0300785340314136 1
 -.0687565445026178 .998299404172285 .030081449507361 .998299404172309 -.0687594
599785653 .856094612870084 .03050607723846815 .856094612870098 -.069184087709672
5 .588891369934756 .0322249964364868 .588891369934784 -.0709030069076912 .513584
012080261 .0328294442669198 .513584012080289 -.0715074547381243 .210655391171188
 .0346077387543768 .210655391171207 -.0732857492255811 .1220911210223406 .034802
1439247664 .1220911210223562 -.0734801543959707 .048469274073233 .03486878994549
86 .0484692740732429 -.0735468004167028 -.363026043249625 .03487853403141355 -.3
63026043249682 -.0735565445026178 38 590 448 0 1 713 725 726 -570 198 727 728 72
9 730 30 725 69 0 346 590 731 0 +-.0350785340314136 .0412434554973822 0 18101462
35801885e-31 -1 0 141 726 713 726 726 590 40 8 727 0 1 8 .000624703376371224 .30
3782431496375 ??.02992438144453385 -.0687594599785652 .0097999900870825 .0303490
09175641 -.0691840877096723 .00968851856766226 .03206792837365935 -.070903006907
6905 .00852180551339189 .0326723762040931 -.0715074547381243 .00796508332698251
 .0344506706915503 -.0732857492255816 .0057529587379942 .0346450758619397 -.0734
801543959711 .00533872754861161 .03471172188267175 -.0735468004167032 .005102697
48748511 .0347214659685864 -.0735565445026178 .00409243489181541 41 2 728 TF.029
9214659685864 -.0687565445026178 .0098 .02992438144453385 -.0687594599785652 .00
97999900870825 41 1 729 L?.0347214659685864 -.0735565445026178 .0040924348918154
1 204 36 730 4 1 .0687565445026178 1 -.0299214659685864 .998299404172277 .068759
4599785652 .998299404172321 -.0299243814445339 .856094612870103 .069184087709672
3 .856094612870117 -.030349009175641 .58889136993482 .0709030069076905 .58889136
9934848 -.0320679283736594 .51358401208023 .0715074547381243 .513584012080257 -.
03267237620409315 .2106553911709895 .0732857492255816 .2106553911710085 -.034450
6706915503 .1220911210220292 .0734801543959711 .1220911210220444 -.0346450758619
3975 .048469274072424 .0735468004167032 .048469274072433 -.03471172188267175 -.3
630260432738355 .0735565445026178 -.363026043273894 -.0347214659685864 16 346 57
 0 ?341 732 429 725 0 0 1 30 731 68 0 732 725 733 0 +-.0350785340314136 -.073756
5445026178 0 1 0 0 16 732 53 0 ?347 422 346 731 0 0 1 30 733 67 0 422 731 734 0
 +.0349214659685864 .0412434554973822 0 0 1 0 16 422 49 0 ?417 735 732 733 0 0 1
 30 734 66 0 735 733 736 0 +-.0350785340314136 .0412434554973822 0 -1 0 0 16 735
 45 0 ?416 418 422 734 0 0 1 30 736 90 0 1 734 362 737 +-.0350785340314136 .0412
434554973822 .01 0 0 -1 30 362 91 0 1 736 358 738 +.0349214659685864 .0412434554
973822 .01 0 0 -1 141 737 419 737 737 736 133 419 202 0 418 739 415 0 +736 -.035
0785340314136 .0412434554973822 .005 -.0350785340314136 .0412434554973822 0 .005
 .01 16 418 200 0 ?75 353 735 419 0 0 1 137 739 194 0 1 414 419 740 +741 742 0 ?
133 414 193 0 60 424 739 0 +739 .0349214659685864 .04124345549738205 .005 .03492
14659685864 -.0737565445026173 .005 0 1 141 740 414 740 740 739 50 741 87 0 328
 330 21 743 +.0349214659685864 .0412434554973822 .01 -1 0 0 0 0 1 134 742 0 0 0
 0 0 0 +744 745 136 744 1 2 2 2 5 FFF1 746 747 748 135 745 2 0 45 4 746 -.005 -1
52655665885959e-30 -.005 -.115 127 2 747 2 2 128 2 748 0 1 14 328 81 710 ?318 33
4 411 6 741 -0 0 318 334 26 50 330 86 0 318 326 741 749 +-.0350785340314136 .041
2434554973822 .01 0 -1 0 0 0 -1 50 21 88 0 334 741 7 750 +-.0350785340314136 -.0
737565445026178 .01 0 1 0 0 0 1 141 743 739 743 743 741 141 750 359 750 750 21 1
37 359 181 0 1 355 424 751 +21 752 0 ?133 424 189 0 353 359 414 0 +362 .03492146
59685864 .0412434554973822 .005 .0349214659685864 .0412434554973822 0 .005 .01 1
41 751 355 751 751 359 134 752 0 0 0 0 0 0 +753 754 136 753 1 2 2 2 5 FFF1 755 7
56 757 135 754 2 0 45 4 755 -.005 .07 -.005 208166817117217e-30 127 2 756 2 2 12
8 2 757 0 1 50 326 65 0 317 320 330 0 +0 0 0 0 0 1 1 0 0 141 749 420 749 749 330
 137 420 207 0 1 415 343 758 +330 759 0 ?133 343 214 0 51 420 760 0 +760 -.03507
85340314136 -.0737565445026187 .005 -.0350785340314136 .04124345549738265 .005 0
 1 141 758 415 758 758 420 134 759 0 0 0 0 0 0 +761 762 136 761 1 2 2 2 5 FFF1 7
63 764 765 135 762 2 0 45 4 763 .005 1110223024625156e-31 .005 .07 127 2 764 2 2
 128 2 765 0 1 137 760 215 0 1 343 504 766 +7 767 0 ?133 504 298 0 63 760 481 0
 +481 .0349214659685864 -.0737565445026178 .005 .02992146596858705 -.06875654450
26178 .01 0 1 141 766 343 766 766 760 134 767 0 0 0 0 0 0 +768 769 136 768 1 2 2
 2 5 FFF1 770 771 772 135 769 2 0 45 4 770 -.115 -.005 4440892098500625e-31 -.00
5 127 2 771 2 2 128 2 772 0 1 137 481 297 0 1 504 436 773 +215 774 0 ?133 436 29
6 0 433 481 775 0 +775 .0299214659685864 -.0687565445026178 .01 .034921465968586
4 -.0737565445026178 .005 0 1 141 773 504 773 773 481 134 774 0 0 0 0 0 0 +776 7
77 136 776 2 19 2 10 5 FFF1 778 779 780 135 777 2 0 45 38 778 0 -.03492146596858
64 .0886665362773407 -.0349214659685864 .1621620012666515 -.03475632871542455 .1
97998645358071 -.0346758072170075 .2323864213842695 -.0345528042698426 .28977167
9154299 -.03434754075340725 .347890053313041 -.034004182656213 .390031765805191
 -.0337552132309106 .4377922865653155 -.03340227875934865 .471668879244024 -.033
15194192999475 .519439360389879 -.03276488385100705 .560214911746422 -.032434501
86198035 .600990437614132 -.0321009888930374 .645418342692335 -.0317376022239208
 .690922300037578 -.03140969762983415 .749731503844913 -.03098591452990085 .8040
56623658261 -.03068860180835205 .89732681059437 -.030178148942116 1 -.0299214659
6858705 127 10 779 3 2 2 2 2 2 2 2 2 3 128 10 780 0 .0714285714285714 .125 .25 .
375 .5 .625 .75 .875 1 137 775 295 0 1 436 406 781 +204 782 0 ?133 406 294 0 396
 775 483 0 +483 .02992146596858735 -.0687565445026178 .01 -.0300785340314125 -.0
687565445026178 .01 0 1 141 781 436 781 781 775 134 782 0 0 0 0 0 0 +783 784 136
 783 2 17 2 9 5 FFF1 785 786 787 135 784 2 0 45 34 785 1 .0687565445026178 .8973
26810604513 .0690132274760918 .804056623658241 .0695236803423833 .74973150384491
7 .0698209930639319 .690922300037551 .0702447761638654 .652129785337389 .0705243
176483531 .600990437614104 .0709360674270686 .560214869353509 .0712643729678264
 .519439360389851 .0715999623850382 .422206121467723 .0724002085821505 .34789005
3313019 .0728392611902442 .289771679154263 .0731826192874386 .232386421384253 .0
733878828038739 .200576911968363 .0735016634508993 .167566296342401 .07357900535
86605 .0917900889875123 .0737565445026178 0 .0737565445026178 127 9 786 3 2 2 2
 2 2 2 2 3 128 9 787 0 .125 .25 .375 .5 .75 .875 .925 1 81 1 710 1126 321 328 78
8 0 708 789 790 80 255 1 321 791 792 9000 1 1 1 1 1 1 1 1 0 FFFFTFTFFFFFFF1 81 1
 788 1035 793 328 0 710 794 795 796 81 1 789 1127 321 187 797 0 710 798 799 82 2
55 1 790 1847132275 14 187 229 789 ?203 317 268 6 175 +0 0 203 317 26 81 1 797 1
039 793 187 0 789 800 801 802 81 1 798 1128 321 213 803 0 789 804 805 82 1 799 -
1366228875 14 213 233 798 ?185 203 427 6 204 +0 0 185 203 26 81 1 803 1041 793 2
13 0 798 801 806 807 81 1 804 1129 321 184 808 0 798 809 810 82 1 805 -136878477
9 14 184 393 804 ?580 174 610 6 192 +0 0 580 174 26 81 1 808 1044 793 184 0 804
 811 812 813 81 1 809 1130 321 580 812 0 804 814 815 82 1 810 -930414475 14 580
 397 809 ?582 184 612 6 479 +0 0 582 184 26 81 1 812 1045 793 580 0 809 808 816
 817 81 1 814 1131 321 134 818 0 809 819 820 82 1 815 -930545547 14 134 635 814
 ?147 702 132 6 821 -0 0 147 702 26 81 1 818 1054 793 134 0 814 822 823 824 81 1
 819 1132 321 147 823 0 814 825 826 82 1 820 2003304576 14 147 639 819 ?313 134
 40 6 470 -0 0 313 134 26 81 1 823 1055 793 147 0 819 818 827 828 81 1 825 1133
 321 313 827 0 819 829 830 82 1 826 2002518144 14 313 776 825 ?831 147 311 6 832
 -0 0 831 147 26 81 1 827 1056 793 313 0 825 823 833 834 81 1 829 1134 321 831 8
33 0 825 0 835 82 1 830 -2140733309 14 831 752 829 ?0 313 307 6 836 -0 0 0 313 2
6 81 1 833 1057 793 831 0 829 827 0 837 82 1 835 -2140209021 80 1 793 0 838 8001
 0 0 0 0 3 5 0 0 0 FFFFTFTFFFFFFF2 83 255 3 837 .792156862745098 .81960784313725
5 .933333333333333 79 255 15 838 SDL/TYSA_COLOUR15 307 755 0 304 831 839 51 255
 836 799 0 831 0 832 0 +-785340314135782e-19 .0137434554973822 -250000000007189e
-22 0 0 1 .004 1 0 0 51 832 796 0 313 836 707 0 +0 -.0462565445026178 -250000000
007189e-22 0 0 1 .004 1 0 0 50 707 670 0 702 832 821 0 +-.00487853403141358 -.00
375654450261779 -250000000007189e-22 0 1 0 0 0 1 50 821 669 0 134 707 470 0 +.00
512146596858642 -.00375654450261779 -250000000007189e-22 1 1387778780781446e-31
 0 -1387778780781446e-31 1 0 50 470 668 0 147 821 457 0 +-.00487853403141358 -.0
287565445026178 -250000000007189e-22 0 -1 0 0 0 -1 15 839 756 0 698 831 0 17 698
 0 839 698 698 0 303 23 0 0 -83 3 834 .792156862745098 .819607843137255 .9333333
33333333 83 3 828 .792156862745098 .819607843137255 .933333333333333 81 1 822 10
53 793 702 0 705 704 818 840 83 3 824 .792156862745098 .819607843137255 .9333333
33333333 81 1 705 1124 321 702 822 0 703 708 841 81 1 704 1052 793 469 0 703 709
 822 842 83 3 840 .792156862745098 .819607843137255 .933333333333333 81 1 709 10
51 793 478 0 708 843 704 844 83 3 842 .792156862745098 .819607843137255 .9333333
33333333 81 1 843 1050 793 195 0 579 845 709 846 83 3 844 .792156862745098 .8196
07843137255 .933333333333333 81 1 579 1119 321 195 843 0 468 635 847 81 1 845 10
49 793 191 0 194 848 843 849 83 3 846 .792156862745098 .819607843137255 .9333333
33333333 81 1 194 1111 321 191 845 0 183 212 850 81 1 848 1048 793 196 0 695 694
 845 851 83 3 849 .792156862745098 .819607843137255 .933333333333333 81 1 695 11
21 321 196 848 0 635 697 852 81 1 694 1047 793 619 0 635 816 848 853 83 3 851 .7
92156862745098 .819607843137255 .933333333333333 81 1 816 1046 793 582 0 697 812
 694 854 83 3 853 .792156862745098 .819607843137255 .933333333333333 81 1 697 11
22 321 582 816 0 695 703 855 83 3 854 .792156862745098 .819607843137255 .9333333
33333333 82 1 855 -930742155 82 1 852 -924188555 81 1 183 1110 321 174 811 0 0 1
94 856 81 1 212 1112 321 203 801 0 194 316 857 82 1 850 -924319627 81 1 801 1040
 793 203 0 212 797 803 858 82 1 857 -1367408523 83 3 858 .792156862745098 .81960
7843137255 .933333333333333 81 1 811 1043 793 174 0 183 806 808 859 82 1 856 -92
4057483 81 1 806 1042 793 185 0 468 803 811 860 83 3 859 .792156862745098 .81960
7843137255 .933333333333333 81 1 468 1118 321 185 806 0 337 579 861 83 3 860 .79
2156862745098 .819607843137255 .933333333333333 81 1 337 1117 321 334 794 0 333
 468 862 82 1 861 -1370881931 81 1 794 1034 793 334 0 337 336 788 863 82 1 862 1
847394419 81 1 336 1033 793 19 0 333 0 794 864 83 3 863 .792156862745098 .819607
843137255 .933333333333333 83 3 864 .792156862745098 .819607843137255 .933333333
333333 82 1 847 -928251787 82 1 841 2004091008 83 3 817 .792156862745098 .819607
843137255 .933333333333333 83 3 813 .792156862745098 .819607843137255 .933333333
333333 83 3 807 .792156862745098 .819607843137255 .933333333333333 81 1 800 1038
 793 317 0 323 322 797 865 83 3 802 .792156862745098 .819607843137255 .933333333
333333 81 1 323 1114 321 317 800 0 316 327 866 81 1 322 1037 793 150 0 316 795 8
00 867 83 3 865 .792156862745098 .819607843137255 .933333333333333 81 1 795 1036
 793 318 0 327 788 322 868 83 3 867 .792156862745098 .819607843137255 .933333333
333333 81 1 327 1115 321 318 795 0 323 333 869 83 3 868 .792156862745098 .819607
843137255 .933333333333333 82 1 869 1846870131 82 1 866 1845952629 83 3 796 .792
156862745098 .819607843137255 .933333333333333 79 14 792 SWEntUnchanged17 75 0 3
35 341 51 73 344 418 0 416 +17 416 0 329 344 78 73 423 735 0 345 +17 423 0 609 4
21 345 76 416 735 0 0 -17 345 0 609 423 349 73 341 346 0 0 -15 609 44 0 345 317
 0 17 349 0 609 345 421 82 347 732 0 341 -17 421 0 609 349 423 79 417 422 0 0 -1
7 347 0 339 409 84 79 349 732 0 421 +15 339 82 0 409 334 0 17 409 0 339 348 347
 58 81 351 0 410 -17 81 0 411 417 60 79 409 351 0 347 +17 410 0 405 63 57 58 348
 407 439 433 -15 405 236 0 57 185 0 141 738 424 738 738 362 16 429 242 0 5e-6 27
2 346 425 0 0 0 1 17 272 0 214 259 366 47 269 429 231 0 +17 269 0 268 276 261 70
 272 429 236 366 -133 231 276 0 272 228 234 0 +234 -.0300785340314136 .036243455
49738225 .01 -.0350785340314136 .0412434554973822 .005 0 1 133 236 274 0 269 234
 260 0 +260 -.0350785340314136 .0412434554973822 .005 -.0300785340314132 .036243
4554973822 .01 0 1 137 260 273 0 1 236 241 870 +175 871 0 ?141 870 236 870 870 2
60 134 871 0 0 0 0 0 0 +872 873 136 872 2 19 2 10 5 FFF1 874 875 876 135 873 2 0
 45 38 874 0 -.0350785340314136 .088666536277338 -.0350785340314136 .16216200126
665 -.0349133967782517 .1979986453580775 -.0348328752798346 .232386421384269 -.0
3470987233266975 .289771679154289 -.0345046088162344 .347890053313043 -.03416125
071904005 .390031765805201 -.03391228129373755 .43779228656532 -.033559346822175
6 .471668879244037 -.03330900999282165 .519439360389889 -.03292195191383395 .560
214911746436 -.0325915699248072 .600990437614151 -.0322580569558642 .64541834269
2293 -.03189467028674805 .69092230003761 -.03156676569266095 .749731503844964 -.
03114298259272755 .804056623658333 -.03084566987117875 .897326810597297 -.030335
21700492725 1 -.0300785340314132 127 10 875 3 2 2 2 2 2 2 2 2 3 128 10 876 0 .07
14285714285714 .125 .25 .375 .5 .625 .75 .875 1 141 715 567 715 715 575 40 8 716
 0 1 8 .000624703376371039 .3037824314963235 ??-.030081449507361 .03624637097332
965 .0097999900870825 -.0305060772384687 .0366709987044373 .00968851856766206 -.
03222499643648835 .038389917902457 .00852180551339033 -.03282944426692 .03899436
57328886 .00796508332698282 -.0346077387543773 .04077266022034585 .0057529587379
9457 -.03480214392476675 .04096706539073535 .00533872754861201 -.034868789945498
85 .0410337114114675 .00510269748748577 -.0348785340314136 .04104345549738225 .0
04092434891834345 41 2 717 TF-.0300785340314136 .03624345549738225 .0098 -.03008
1449507361 .03624637097332965 .0097999900870825 41 1 718 L?-.0348785340314136 .0
4104345549738225 .004092434891834345 204 36 719 4 1 .03624345549738225 1 -.03007
85340314136 .998299404172311 .03624637097332965 .998299404172303 -.0300814495073
61 .856094612869986 .0366709987044373 .856094612869989 -.0305060772384687 .58889
1369934594 .038389917902457 .588891369934594 -.03222499643648835 .51358401208026
9 .0389943657328886 .513584012080269 -.03282944426692 .210655391171058 .04077266
02203459 .2106553911710585 -.03460773875437725 .1220911210221322 .04096706539073
54 .1220911210221324 -.03480214392476675 .048469274072684 .0410337114114675 .048
4692740726844 -.03486878994549885 -.363026043266262 .04104345549738225 -.3630260
43266262 -.0348785340314136 17 99 0 515 107 116 97 523 160 0 532 +15 515 423 0 5
16 195 0 17 523 0 521 168 527 100 99 160 0 0 -17 516 0 515 116 107 105 509 563 0
 517 -17 509 0 508 112 114 101 516 563 0 0 +82 1 711 -922681227 82 1 706 2004549
760 17 35 0 148 138 145 126 30 36 0 0 -17 141 0 699 139 27 31 41 288 0 0 +17 41
 0 40 37 38 124 141 288 0 33 -82 1 696 -923402109 141 624 536 624 624 622 134 62
5 0 0 0 0 0 0 +877 878 136 877 1 2 2 2 5 FFF1 879 880 881 135 878 2 0 45 4 879 1
 -.0300785340314134 1 .0299214659685865 127 2 880 2 2 128 2 881 0 1 133 613 491
 0 517 882 883 0 +883 .0347214659685864 -.0735565445026178 .005 .034721465968586
4 .0410434554973822 .005 .998260869565221 .00173913043478134 137 882 492 0 1 525
 613 884 -198 885 0 ?137 883 490 0 1 613 518 886 -479 887 0 ?133 518 489 0 116 8
83 584 0 +584 .0347214659685864 .0410434554973822 .005 .0347214659685864 -.07355
65445026178 .005 .998260869565219 .0017391304347817 141 886 613 886 886 883 134
 887 0 0 0 0 0 0 +888 889 136 888 1 2 2 2 5 FFF1 890 891 892 135 889 2 0 45 4 89
0 -.005 -152655665885959e-30 -.005 -.115 127 2 891 2 2 128 2 892 0 1 133 525 493
 0 168 893 882 0 +882 .0347214659685864 -.0735565445026178 .005 -.03487853403141
36 -.0735565445026178 .005 .997142857142854 .002857142857141745 141 884 525 884
 884 882 134 885 0 0 0 0 0 0 +894 895 136 894 1 2 2 2 5 FFF1 896 897 898 135 895
 2 0 45 4 896 0 .0350785340314135 0 -.0349214659685866 127 2 897 2 2 128 2 898 0
 1 137 893 494 0 1 611 525 899 -192 900 0 ?133 611 495 0 524 173 893 0 +893 -.03
48785340314136 -.0735565445026178 .005 .0347214659685864 -.0735565445026178 .005
 .99714285714286 .00285714285714552 141 899 611 899 899 893 134 900 0 0 0 0 0 0
 +901 902 136 901 1 2 2 2 5 FFF1 903 904 905 135 902 2 0 45 4 903 -.005 .07 -.00
5 208166817117217e-30 127 2 904 2 2 128 2 905 0 1 137 173 496 0 1 169 611 906 -1
76 907 0 ?141 906 169 906 906 173 134 907 0 0 0 0 0 0 +908 909 136 908 1 2 2 2 5
 FFF1 910 911 912 135 909 2 0 45 4 910 0 .0412434554973824 0 -.0737565445026181
 127 2 911 2 2 128 2 912 0 1 141 588 518 588 588 584 134 589 0 0 0 0 0 0 +913 91
4 136 913 1 2 2 2 5 FFF1 915 916 917 135 914 2 0 45 4 915 3469446951953615e-31 .
0737565445026176 3469446951953615e-31 -.04124345549738205 127 2 916 2 2 128 2 91
7 0 1 141 583 616 583 583 576 141 581 883 581 581 479 141 577 674 918 919 569 14
1 918 622 920 577 569 141 919 564 577 920 569 141 920 575 919 918 569 17 386 0 4
27 433 284 61 66 387 921 365 -133 921 280 0 386 432 922 0 +922 .0299214659685864
 .03624345549738175 .01 .0299214659685864 -.0687565445026173 .01 0 1 137 432 281
 0 1 426 921 923 +175 924 0 ?137 922 279 0 1 921 230 925 +204 926 0 ?133 230 278
 0 366 922 228 0 +228 -.0300785340314136 -.0687565445026187 .01 -.03007853403141
36 .03624345549738275 .01 0 1 141 925 921 925 925 922 134 926 0 0 0 0 0 0 +927 9
28 136 927 1 2 2 2 5 FFF1 929 930 931 135 928 2 0 45 4 929 1 -.03624345549738175
 1 .0687565445026173 127 2 930 2 2 128 2 931 0 1 141 923 426 923 923 432 134 924
 0 0 0 0 0 0 +932 933 136 932 2 17 2 9 5 FFF1 934 935 936 135 933 2 0 45 34 934
 1 .0299214659685864 .897326810627056 .03017814894193715 .804056623658327 .03068
860180835155 .749731503844967 .0309859145299003 .690922300037606 .03140969762983
375 .652129785337495 .0316892391143211 .600990437614147 .03210098889303705 .5602
14869353549 .03242929443379495 .519439360389886 .0327648838510068 .4222061214677
985 .03356513004811885 .3478900533130415 .03400418265621285 .2897716791542845 .0
3434754075340725 .232386421384269 .0345528042698426 .200576911968376 .0346665849
1686795 .167566296342412 .03474392682462915 .0917900889875317 .0349214659685864
 0 .0349214659685864 127 9 935 3 2 2 2 2 2 2 2 3 128 9 936 0 .125 .25 .375 .5 .7
5 .875 .925 1 141 486 406 486 486 483 134 487 0 0 0 0 0 0 +937 938 136 937 1 2 2
 2 5 FFF1 939 940 941 135 938 2 0 45 4 939 .999999999999989 -.02992146596858735
 .999999999999989 .0300785340314125 127 2 940 2 2 128 2 941 0 1 141 480 882 942
 943 198 141 942 590 944 480 198 141 943 646 480 944 198 141 944 714 943 942 198
 80 2 208 945 946 8044 0 0 0 0 3 5 0 0 0 FFFFTFFFTTFFFF3 2 81 2 209 444 208 204
 0 0 202 456 947 948 84 255 6 466 HAACAB83 2 467 .005 .2 84 6 947 HAACAB83 2 948
 .005 .2 79 17 946 SDL/TYSA_BLEND_ID141 363 354 363 363 358 82 1 338 1847656563
 141 332 364 949 950 320 141 949 357 951 332 320 141 950 371 332 951 320 141 951
 380 950 949 320 17 308 0 319 308 308 0 304 300 0 0 -82 1 324 1840316547 15 314
 780 0 302 313 0 17 302 0 314 302 302 0 299 298 0 0 -141 237 231 237 237 234 134
 238 0 0 0 0 0 0 +952 953 136 952 2 17 2 9 5 FFF1 954 955 956 135 953 2 0 45 34
 954 1 .03624345549738225 .897326810602056 .0365001384708698 .804056623658332 .0
3701059133714735 .749731503844985 .03730790405869605 .69092230003761 .0377316871
586296 .65212978533748 .03801122864311705 .600990437614151 .03842297842183285 .5
60214869353552 .03875128396259075 .519439360389889 .03908687337980255 .422206121
4677705 .03988711957691485 .347890053313043 .04032617218500865 .28977167915429 .
040669530282203 .232386421384269 .0408747937986384 .200576911968362 .04098857444
56638 .167566296342414 .041065916353425 .0917900889875325 .04124345549738225 0 .
04124345549738225 127 9 955 3 2 2 2 2 2 2 2 3 128 9 956 0 .125 .25 .375 .5 .75 .
875 .925 1 141 232 230 232 232 228 134 233 0 0 0 0 0 0 +957 958 136 957 1 2 2 2
 5 FFF1 959 960 961 135 958 2 0 45 4 959 1 -.0687565445026187 1 .036243455497382
75 127 2 960 2 2 128 2 961 0 1 141 216 570 962 963 204 126 217 FF2 3 3 8 5 1 2 4
 TFF11 4 964 965 966 967 968 125 218 0 1 -.0469934554973822 .0795065445026178 0
 1 -.0469934554973822 .0795065445026178 2 BBBBBBBB????0 0 0 0 45 96 964 .0349214
659685864 .0469934554973822 .005 1 .0349214659685864 .0434101221640489 .005 1 .0
349214659685864 .03982678883071555 .005 1 .0349214659685864 .001243455497382216
 .005 1 .0349214659685864 -.0337565445026178 .005 1 .0349214659685864 -.07233987
78359511 .005 1 .0349214659685864 -.0759232111692845 .005 1 .0349214659685864 -.
0795065445026178 .005 1 .00873036649214661 .01174836387434556 .0025 .25 .0087303
6649214661 .01085253054101222 .0025 .25 .00873036649214661 .00995669720767889 .0
025 .25 .00873036649214661 .000310863874345554 .0025 .25 .0087303664921466 -.008
43913612565445 .0025 .25 .0087303664921466 -.0180849694589878 .0025 .25 .0087303
6649214661 -.01898080279232115 .0025 .25 .00873036649214661 -.01987663612565445
 .0025 .25 .0299214659685864 .0469934554973822 .01 1 .0299214659685864 .04341012
21640489 .01 1 .0299214659685864 .03982678883071555 .01 1 .0299214659685864 .001
243455497382216 .01 1 .0299214659685864 -.0337565445026178 .01 1 .02992146596858
64 -.0723398778359511 .01 1 .0299214659685864 -.0759232111692845 .01 1 .02992146
59685864 -.0795065445026178 .01 1 127 2 965 3 3 127 4 966 4 2 2 4 128 2 967 0 1
 128 4 968 -.0469934554973822 -.0362434554973822 .0687565445026178 .079506544502
6178 141 962 775 969 216 204 141 963 438 216 970 204 141 970 431 963 969 204 141
 969 922 970 962 204 81 2 186 440 208 175 0 0 0 202 971 972 84 6 210 HAACAB83 2
 211 .005 .2 84 6 971 HAACAB83 2 972 .005 .2 141 200 714 973 193 176 141 201 575
 193 973 176 141 973 628 201 200 176 141 199 893 199 199 192 141 188 569 974 975
 175 126 189 FF2 3 3 8 5 1 2 4 TFF11 4 976 977 978 979 980 125 190 0 1 -.0385785
340314136 .0384214659685864 0 1 -.0385785340314136 .0384214659685864 2 BBBBBBBB?
???0 0 0 0 45 96 976 -.0385785340314136 .0412434554973822 .005 1 -.0357452006980
803 .0412434554973822 .005 1 -.03291186736474695 .0412434554973822 .005 1 -.0100
785340314136 .0412434554973822 .005 1 .0099214659685864 .0412434554973822 .005 1
 .03275479930191975 .0412434554973822 .005 1 .03558813263525305 .041243455497382
2 .005 1 .0384214659685864 .0412434554973822 .005 1 -.0096446335078534 .01031086
387434556 .0025 .25 -.00893630017452008 .01031086387434556 .0025 .25 -.008227966
84118674 .01031086387434556 .0025 .25 -.0025196335078534 .01031086387434556 .002
5 .25 .0024803664921466 .01031086387434556 .0025 .25 .00818869982547994 .0103108
6387434556 .0025 .25 .00889703315881327 .01031086387434556 .0025 .25 .0096053664
9214661 .01031086387434556 .0025 .25 -.0385785340314136 .0362434554973822 .01 1
 -.0357452006980803 .0362434554973822 .01 1 -.03291186736474695 .036243455497382
2 .01 1 -.0100785340314136 .0362434554973822 .01 1 .0099214659685864 .0362434554
973822 .01 1 .03275479930191975 .0362434554973822 .01 1 .03558813263525305 .0362
434554973822 .01 1 .0384214659685864 .0362434554973822 .01 1 127 2 977 3 3 127 4
 978 4 2 2 4 128 2 979 0 1 128 4 980 -.0385785340314136 -.0300785340314136 .0299
214659685864 .0384214659685864 141 974 432 981 188 175 141 975 260 188 982 175 1
41 982 262 975 981 175 141 981 277 982 974 175 19 20 95 0 1 0 10 6 S0 141 22 760
 22 22 7 134 18 0 0 0 0 0 0 +983 984 136 983 1 2 2 2 1 FFF1 985 986 987 135 984
 1 0 45 4 985 0 -.01625654450261785 1 -.01625654450261785 127 2 986 2 2 128 2 98
7 0 1 74 4 CI16 index_map_offset0 0 1 dCCZ20 15 4 0 0 829 456 2 833 0 0 0 0 0 0
 0 0 0 0 0 0 0 0 0 0 80 2 13 988 989 8004 0 0 0 0 3 5 0 0 0 FFTFFFFFFFFFFF2 3 83
 1 14 1 79 16 989 SDL/TYSA_DENSITY1 0 
