**ABCDEFGHIJKLMNOPQRSTUVWXYZabcdefghijklmnopqrstuvwxyz**************************
**PARASOLID !"#$%&'()*+,-./:;<=>?@[\]^_`{|}~0123456789**************************
**PART1;
MC=AMD64;
MC_MODEL=Intel64 Family 6 Model 142 Stepping 10, GenuineIntel;
MC_ID=unknown;
OS=Windows_NT;
OS_RELEASE=unknown;
FRU=Parasolid Version 30.0, build 298, 12-15-2017;
APPL=SOLIDWORKS 2018-2018134;
SITE=;
USER=unknown;
FORMAT=text;
GUISE=transmit;
KEY=Ch 2-1 Review;
FILE=Ch 2-1 Review.x_t;
DATE=Sun Jun  2 08:48:12 2019;
**PART2;
SCH=SCH_3000298_30000;
USFLD_SIZE=0;
**PART3;
**END_OF_HEADER*****************************************************************
T51 : TRANSMIT FILE created by modeller version 300029823 SCH_3000298_30000_1300
6205 0 12 33 CCCCCCI4 mesh1006 0 I8 polyline1008 0 CCCCCCCDI5 owner1040 0 CCCCCC
I13 boundary_mesh1006 0 I17 boundary_polyline1008 0 CCCA16 index_map_offset0 0 1
 dA9 index_map82 0 A17 node_id_index_map82 0 A20 schema_embedding_map82 0 A5 chi
ld12 0 A14 lowest_node_id0 0 1 dZ1 999 2 3 0 0 0 0 0 0 1e3 1e-8 0 4 0 1 0 1 1 5
 6 7 8 0 0 9 10 11 0 0 0 0 0 0 81 255 2 2 139 12 1 0 0 0 0 13 0 70 11 CI9 list_t
ype0 0 1 uI10 notransmit0 0 1 lCCCDCCDI12 finger_index0 0 1 dI12 finger_block101
2 0 CZ3 0 4 T1 0 0 3 20 1 14 14 13 255 5 94 0 1 0 15 0 0 16 0 51 255 6 432 0 17
 18 0 0 +.0434653465346535 .026980198019802 .01 -2312964634635745e-31 1 0 .01 -1
 -2312964634635745e-31 0 31 255 7 660 0 19 20 0 0 +.0484653465346535 .0069801980
1980198 .025 -1 -2312964634635745e-31 0 2312964634635745e-31 -1 0 .005 29 255 8
 466 0 11 21 0 -.0365346534653465 .026980198019802 .005 19 8 CCCCCCCA5 owner12 0
 Z9 28 0 1 16 0 22 V0 16 255 10 360 0 ?23 0 24 20 0 0 1 18 255 11 464 0 25 0 26
 8 ?1 17 255 25 0 27 28 29 11 30 31 0 32 +18 26 327 0 33 11 34 21 ?1 17 33 0 35
 36 37 26 38 24 0 39 +18 34 324 0 40 26 41 42 ?1 29 21 329 0 26 42 8 -.036534653
4653465 .026980198019802 0 29 42 326 0 34 43 21 .0434653465346535 .0269801980198
02 0 29 43 323 0 41 44 42 .0534653465346535 .026980198019802 .01 18 41 321 0 45
 34 46 43 ?1 29 44 308 0 46 47 43 -.0465346534653465 .026980198019802 .01 18 46
 306 0 48 41 49 44 ?1 29 47 305 0 49 50 44 -.0465346534653465 .026980198019802 .
04 18 49 303 0 51 46 52 47 ?1 29 50 284 0 52 53 47 .0434653465346535 -.033019801
980198 0 18 52 282 0 54 49 55 50 ?1 29 53 281 0 55 56 50 -.0365346534653465 -.03
3019801980198 0 18 55 279 0 57 52 58 53 ?1 29 56 278 0 58 59 53 -.04653465346534
65 -.033019801980198 .01 18 58 276 0 60 55 61 56 ?1 29 59 275 0 61 62 56 -.04653
46534653465 -.033019801980198 .04 18 61 273 0 63 58 64 59 ?1 29 62 272 0 64 65 5
9 .0534653465346535 -.033019801980198 .01 18 64 270 0 66 61 67 62 ?1 29 65 263 0
 67 68 62 -.0365346534653465 .026980198019802 .05 18 67 261 0 69 64 70 65 ?1 29
 68 260 0 70 71 65 -.0365346534653465 -.033019801980198 .05 18 70 258 0 72 67 73
 68 ?1 29 71 209 0 73 74 68 .0534653465346535 -.033019801980198 .04 18 73 207 0
 75 70 76 71 ?1 29 74 200 0 76 77 71 .0534653465346535 .026980198019802 .04 18 7
6 198 0 78 73 79 74 ?1 29 77 191 0 79 80 74 .0434653465346535 .026980198019802 .
05 18 79 189 0 81 76 82 77 ?1 29 80 188 0 82 83 77 .0434653465346535 -.033019801
980198 .05 18 82 186 0 84 79 85 80 ?1 29 83 615 0 86 87 80 -.0415346534653465 .0
26980198019802 .01 18 86 526 0 88 89 90 83 ?1 29 87 617 0 85 91 83 .043465346534
6535 .026980198019802 .005 18 85 525 0 92 82 89 87 ?1 29 91 618 0 89 93 87 .0484
653465346535 .026980198019802 .01 18 89 533 0 94 85 86 91 ?1 29 93 619 0 95 96 9
1 .0484653465346535 .026980198019802 .04 18 95 524 0 97 98 99 93 ?1 29 96 620 0
 99 100 93 .0434653465346535 .026980198019802 .045 18 99 530 0 101 95 102 96 ?1
 29 100 621 0 103 104 96 -.0365346534653465 .026980198019802 .045 18 103 523 0 1
05 106 107 100 ?1 29 104 622 0 90 108 100 -.0415346534653465 .026980198019802 .0
4 18 90 518 0 109 86 110 104 ?1 29 108 623 0 110 111 104 .0434653465346535 -.028
019801980198 .005 18 110 529 0 112 90 113 108 ?1 29 111 624 0 98 114 108 .048465
3465346535 -.028019801980198 .04 18 98 522 0 115 107 95 111 ?1 29 114 625 0 106
 116 111 .0484653465346535 -.028019801980198 .01 18 106 521 0 117 118 103 114 ?1
 29 116 626 0 119 120 114 -.0415346534653465 -.028019801980198 .01 18 119 532 0
 121 113 118 116 ?1 29 120 627 0 113 122 116 -.0365346534653465 -.02801980198019
8 .005 18 113 520 0 123 110 119 120 ?1 29 122 628 0 107 124 120 -.03653465346534
65 -.028019801980198 .045 18 107 531 0 125 103 98 122 ?1 29 124 629 0 118 126 12
2 -.0415346534653465 -.028019801980198 .04 18 118 519 0 127 119 106 124 ?1 29 12
6 630 0 102 0 124 .0434653465346535 -.028019801980198 .045 18 102 527 0 128 99 0
 126 ?1 17 128 0 129 130 125 102 131 132 0 133 +15 255 129 543 0 128 134 0 17 13
0 0 129 135 128 98 133 136 0 0 -17 125 0 129 128 137 107 127 138 0 139 -17 131 0
 140 141 142 107 128 132 0 0 -16 132 514 0 ?128 143 31 144 0 0 1 17 133 0 145 10
1 115 102 130 136 0 142 +15 145 566 0 133 146 0 17 101 0 145 97 133 99 142 147 0
 148 +17 115 0 145 133 97 98 149 150 0 151 +16 136 502 0 ?133 152 150 153 0 0 1
 17 142 0 140 131 148 102 101 147 0 0 -15 140 557 0 148 154 0 17 148 0 140 142 1
41 99 155 143 0 156 -16 147 515 0 ?101 157 158 159 0 0 1 16 157 507 0 ?97 150 14
7 160 0 0 1 16 158 498 0 ?161 147 162 163 0 0 1 30 255 159 602 0 147 164 165 0 +
.0434653465346535 0 .045 0 1 0 30 164 603 0 150 166 159 0 +.0484653465346535 .02
6980198019802 .04 2312964634635745e-31 -1 0 30 165 601 0 152 159 167 0 --.036534
6534653465 0 .045 0 1 0 16 152 513 0 ?139 168 136 165 0 0 1 30 167 600 0 169 165
 170 0 -.0434653465346535 0 .005 0 1 0 16 169 517 0 ?112 171 172 167 0 0 1 30 17
0 599 0 171 167 173 0 +-.0365346534653465 0 .005 0 1 0 16 171 516 0 ?32 174 169
 170 0 0 1 30 173 598 0 175 170 176 0 +-.0415346534653465 .026980198019802 .05 0
 0 -1 16 175 495 0 ?177 178 143 173 0 0 1 31 176 597 0 172 173 179 0 --.03653465
34653465 .026980198019802 .04 0 -1 0 0 0 -1 .005 16 172 506 0 ?105 169 180 176 0
 0 1 30 179 596 0 143 176 160 0 +-.0465346534653465 .026980198019802 .045 -1 0 0
 16 143 512 0 ?155 175 132 179 0 0 1 31 160 595 0 157 179 181 0 -.04346534653465
35 .026980198019802 .04 0 -1 0 0 0 -1 .005 30 181 594 0 178 160 182 0 +.04846534
65346535 .026980198019802 .05 0 0 -1 16 178 508 0 ?183 162 175 181 0 0 1 31 182
 593 0 184 181 185 0 -.0434653465346535 .026980198019802 .01 0 -1 0 0 0 -1 .005
 16 184 509 0 ?92 180 186 182 0 0 1 30 185 592 0 31 182 187 0 +-.046534653465346
5 .026980198019802 .005 -1 0 0 16 31 510 0 ?25 132 188 185 0 0 1 31 187 591 0 18
0 185 189 0 --.0365346534653465 .026980198019802 .01 0 -1 0 0 0 -1 .005 16 180 5
11 0 ?88 172 184 187 0 0 1 30 189 8 0 190 187 191 0 +-.0465346534653465 -.033019
801980198 .05 1 0 0 16 190 259 0 ?84 192 193 189 0 0 1 30 191 14 0 192 189 194 0
 +-.0465346534653465 .026980198019802 .05 -1 0 0 16 192 190 0 ?195 196 190 191 0
 0 1 30 194 68 0 197 191 198 0 +-.0465346534653465 -.033019801980198 0 1 0 0 16
 197 280 0 ?199 193 174 194 0 0 1 30 198 66 0 193 194 200 0 +-.0465346534653465
 .026980198019802 0 -1 0 0 16 193 325 0 ?39 190 197 198 0 0 1 30 200 90 0 196 19
8 201 0 +-.0465346534653465 .026980198019802 .05 0 0 -1 16 196 304 0 ?202 203 19
2 200 0 0 1 30 201 91 0 203 200 204 0 +.0534653465346535 .026980198019802 .05 0
 0 -1 16 203 199 0 ?205 206 196 201 0 0 1 30 204 92 0 206 201 207 0 +.0534653465
346535 -.033019801980198 .05 0 0 -1 16 206 208 0 ?208 209 203 204 0 0 1 30 207 9
3 0 209 204 210 0 +-.0465346534653465 -.033019801980198 .05 0 0 -1 16 209 274 0
 ?211 212 206 207 0 0 1 30 210 194 0 212 207 213 0 +.0434653465346535 .026980198
019802 .05 -2312964634635745e-31 1 0 16 212 192 0 ?214 215 209 210 0 0 1 31 213
 203 0 215 210 216 0 -.0434653465346535 .026980198019802 .04 0 -1 0 0 0 -1 .01 1
6 215 201 0 ?78 217 212 213 0 0 1 30 216 212 0 217 213 218 0 -.0534653465346535
 -.033019801980198 .04 -2312964634635745e-31 1 0 16 217 210 0 ?75 219 215 216 0
 0 1 31 218 218 0 219 216 220 0 -.0434653465346535 -.033019801980198 .04 0 1 0 0
 0 1 .01 16 219 216 0 ?221 222 217 218 0 0 1 30 220 266 0 222 218 223 0 +-.03653
46534653465 -.033019801980198 .05 2312964634635745e-31 -1 0 16 222 264 0 ?224 22
5 219 220 0 0 1 31 223 287 0 225 220 226 0 -.0434653465346535 -.033019801980198
 .01 0 1 0 0 0 1 .01 16 225 285 0 ?66 227 222 223 0 0 1 31 226 293 0 227 223 228
 0 --.0365346534653465 -.033019801980198 .01 0 1 0 0 0 1 .01 16 227 291 0 ?57 22
9 225 226 0 0 1 31 228 299 0 229 226 230 0 --.0365346534653465 -.033019801980198
 .04 0 1 0 0 0 1 .01 16 229 297 0 ?63 231 227 228 0 0 1 30 230 311 0 231 228 232
 0 +-.0465346534653465 .026980198019802 .01 2312964634635745e-31 -1 0 16 231 309
 0 ?233 234 229 230 0 0 1 30 232 317 0 234 230 235 0 --.0465346534653465 .026980
198019802 .04 2312964634635745e-31 -1 0 16 234 315 0 ?51 236 231 232 0 0 1 31 23
5 332 0 236 232 237 0 -.0434653465346535 .026980198019802 .01 0 -1 0 0 0 -1 .01
 16 236 330 0 ?40 238 234 235 0 0 1 31 237 338 0 238 235 239 0 --.03653465346534
65 .026980198019802 .01 0 -1 0 0 0 -1 .01 16 238 336 0 ?48 240 236 237 0 0 1 31
 239 344 0 240 237 241 0 --.0365346534653465 .026980198019802 .04 0 -1 0 0 0 -1
 .01 16 240 342 0 ?69 242 238 239 0 0 1 30 241 350 0 242 239 243 0 -.04346534653
46535 1005338093668408e-32 0 -2312964634635745e-31 1 0 16 242 348 0 ?54 24 240 2
41 0 0 1 30 243 356 0 24 241 20 0 --.0365346534653465 -845033614040186e-32 0 231
2964634635745e-31 -1 0 16 24 354 0 ?33 10 242 243 0 0 1 30 20 362 0 10 243 7 0 +
.0534653465346535 .026980198019802 .01 -2312964634635745e-31 1 0 17 54 0 35 37 3
6 52 244 242 0 199 +15 35 44 0 37 245 0 17 37 0 35 33 54 55 199 197 0 38 -17 36
 0 35 54 33 34 39 193 0 244 -17 244 0 246 45 247 34 54 242 0 0 -17 199 0 248 66
 57 52 37 197 0 247 +15 248 82 0 249 250 0 17 66 0 248 251 199 64 247 225 0 208
 +17 57 0 248 199 211 55 60 227 0 37 +17 247 0 246 244 252 52 66 225 0 0 -15 246
 421 0 247 17 0 17 252 0 246 247 45 64 23 10 0 0 -17 45 0 246 252 244 41 40 236
 0 23 -17 23 0 253 254 208 41 252 10 0 205 +15 253 80 0 208 255 0 17 254 0 253 7
5 23 76 205 203 0 256 -17 208 0 253 23 75 64 251 206 0 252 +17 205 0 257 40 78 4
1 254 203 0 0 +15 257 78 0 258 15 259 17 40 0 257 39 205 34 45 236 0 36 +17 78 0
 257 205 260 76 81 215 0 254 +17 260 0 257 78 69 79 195 192 0 0 -17 81 0 261 262
 256 79 78 215 0 214 -15 261 229 0 263 264 0 17 262 0 261 263 81 82 214 212 0 0
 -17 256 0 261 81 263 76 75 217 0 0 -17 214 0 265 195 84 79 262 212 0 260 +15 26
5 3 0 195 266 0 17 195 0 265 224 214 67 260 192 0 267 +17 84 0 265 214 224 82 24
9 190 0 221 +17 224 0 265 84 195 70 267 222 0 249 +17 249 0 248 63 221 70 84 190
 0 0 -17 221 0 248 249 251 82 263 219 0 262 +17 251 0 248 221 66 73 208 206 0 26
3 -17 263 0 261 256 262 73 221 219 0 0 -17 63 0 248 211 249 61 72 229 0 268 +17
 211 0 248 57 63 58 268 209 0 0 +17 72 0 269 267 270 70 63 229 0 224 -17 268 0 2
71 51 233 61 211 209 0 270 -15 271 84 0 268 272 0 17 51 0 271 202 268 49 270 234
 0 258 +17 233 0 271 268 202 58 273 231 0 211 +17 270 0 269 72 274 61 51 234 0 0
 -15 269 379 0 274 275 0 17 274 0 269 270 267 49 69 240 0 0 -17 267 0 269 274 72
 67 224 222 0 0 -17 69 0 257 260 258 67 274 240 0 195 +17 258 0 257 69 48 49 202
 196 0 274 -17 48 0 257 258 39 46 276 238 0 202 +17 202 0 271 233 51 46 258 196
 0 273 +17 273 0 277 276 60 46 233 231 0 0 -15 277 400 0 276 278 0 17 276 0 277
 38 273 26 48 238 0 0 -17 60 0 277 273 38 58 57 227 0 233 -17 38 0 277 60 276 55
 33 24 0 0 -14 255 278 399 279 ?17 275 277 5 18 +0 0 17 275 22 81 1 279 979 280
 278 281 0 0 282 283 14 17 420 282 ?284 278 246 5 6 +0 0 284 278 22 14 275 378 2
85 ?278 264 269 5 286 +0 0 278 264 22 51 18 411 0 278 286 6 0 +-.036534653465346
5 .026980198019802 .01 2312964634635745e-31 -1 0 .01 1 2312964634635745e-31 0 13
 22 29 0 0 0 0 0 0 9 15 14 15 79 287 ?272 0 257 5 288 -0 0 272 0 22 81 1 287 982
 280 15 289 0 285 290 291 14 272 85 290 ?250 15 292 5 293 -0 0 250 15 22 50 255
 288 86 0 15 294 295 0 +-.0465346534653465 .026980198019802 .05 0 -1 0 0 0 -1 50
 294 65 0 245 296 288 0 +0 0 0 0 0 1 1 0 0 50 295 87 0 255 288 297 0 +.053465346
5346535 .026980198019802 .05 -1 -2312964634635745e-31 0 2312964634635745e-31 -1
 0 14 255 81 298 ?266 250 299 5 295 -0 0 266 250 22 50 297 88 0 250 295 293 0 +-
.0465346534653465 -.033019801980198 .05 0 1 0 0 0 1 14 250 83 300 ?255 272 248 5
 297 -0 0 255 272 22 50 293 89 0 272 297 301 0 +-.0465346534653465 .026980198019
802 .05 1 2312964634635745e-31 0 -2312964634635745e-31 1 0 51 301 240 0 264 293
 286 0 +.0434653465346535 1005338093668408e-32 .04 2312964634635745e-31 -1 0 .01
 1 2312964634635745e-31 0 14 264 228 302 ?275 245 261 5 301 +0 0 275 245 22 51 2
86 390 0 275 301 18 0 +-.0365346534653465 -845033614040186e-32 .04 -231296463463
5745e-31 1 0 .01 -1 -2312964634635745e-31 0 81 1 302 986 280 264 303 0 300 304 3
05 14 245 43 304 ?264 266 35 5 294 -0 0 264 266 22 81 1 304 987 280 245 306 0 30
2 307 308 14 266 1 307 ?245 255 265 5 296 +0 0 245 255 22 81 1 307 988 280 266 3
09 0 304 310 311 50 296 2 0 266 312 294 0 +0 0 .05 0 0 1 1 0 0 51 312 581 0 313
 314 296 0 +.0434653465346535 .026980198019802 .01 -2312964634635745e-31 1 0 .00
5 -1 -2312964634635745e-31 0 14 313 575 310 ?315 316 317 5 312 -0 0 315 316 22 5
1 314 582 0 316 318 312 0 +-.0365346534653465 .026980198019802 .01 2312964634635
745e-31 -1 0 .005 1 2312964634635745e-31 0 14 316 571 319 ?313 320 321 5 314 -0
 0 313 320 22 51 318 583 0 320 322 314 0 +-.0365346534653465 -845033614040186e-3
2 .04 -2312964634635745e-31 1 0 .005 -1 -2312964634635745e-31 0 14 320 567 323 ?
316 146 324 5 318 -0 0 316 146 22 51 322 584 0 146 325 318 0 +.0434653465346535
 1005338093668408e-32 .04 2312964634635745e-31 -1 0 .005 1 2312964634635745e-31
 0 14 146 563 326 ?320 327 145 5 322 -0 0 320 327 22 50 325 585 0 327 328 322 0
 +0 0 .005 0 0 1 1 0 0 14 327 558 329 ?146 154 27 5 325 +0 0 146 154 22 50 328 5
86 0 154 330 325 0 +0 0 .045 0 0 1 1 0 0 14 154 553 331 ?327 332 140 5 328 -0 0
 327 332 22 50 330 587 0 332 333 328 0 +.0484653465346535 .026980198019802 .05 -
1 -2312964634635745e-31 0 2312964634635745e-31 -1 0 14 332 544 334 ?154 134 335
 5 330 +0 0 154 134 22 50 333 588 0 134 336 330 0 +-.0465346534653465 -.02801980
1980198 .05 0 1 0 0 0 1 14 134 539 337 ?332 284 129 5 333 +0 0 332 284 22 50 336
 589 0 284 338 333 0 +-.0415346534653465 .026980198019802 .05 1 2312964634635745
e-31 0 -2312964634635745e-31 1 0 14 284 534 339 ?134 17 340 5 336 +0 0 134 17 22
 51 338 716 0 315 0 336 0 +-.0465346534653465 .00698019801980195 .025 1 23129646
34635745e-31 0 .005 -2312964634635745e-31 1 0 14 315 703 341 ?342 313 343 5 338
 -342 342 342 313 22 81 1 341 998 280 315 344 0 339 345 346 14 342 698 345 ?0 31
5 347 5 338 -315 315 0 315 22 15 343 706 0 348 315 349 17 348 0 343 348 348 0 35
0 19 0 0 +15 349 707 0 351 315 0 17 351 0 349 351 351 0 352 353 0 0 +17 352 0 29
9 352 352 0 351 353 0 0 -16 353 690 0 ?351 354 0 355 0 0 1 16 354 687 0 ?356 19
 353 357 0 0 1 31 355 720 0 353 357 358 0 +.0534653465346535 .00698019801980198
 .025 1 2312964634635745e-31 0 -2312964634635745e-31 1 0 .005 31 357 721 0 354 0
 355 0 +-.0465346534653465 .00698019801980195 .025 1 2312964634635745e-31 0 -231
2964634635745e-31 1 0 .005 31 358 719 0 359 355 163 0 +-.0415346534653465 .00698
019801980196 .025 1 2312964634635745e-31 0 -2312964634635745e-31 1 0 .005 16 359
 686 0 ?360 188 19 358 0 0 1 30 163 614 0 158 358 361 0 +-.0415346534653465 -.02
8019801980198 .05 0 0 -1 30 361 613 0 186 163 362 0 +-.0415346534653465 .0269801
98019802 .04 -2312964634635745e-31 1 0 16 186 494 0 ?109 184 363 361 0 0 1 30 36
2 612 0 363 361 144 0 --.0415346534653465 .026980198019802 .01 -2312964634635745
e-31 1 0 16 363 496 0 ?364 186 138 362 0 0 1 30 144 611 0 132 362 365 0 +-.04653
46534653465 -.028019801980198 .045 1 0 0 31 365 610 0 138 144 366 0 --.036534653
4653465 -.028019801980198 .04 0 1 0 0 0 1 .005 16 138 497 0 ?127 363 367 365 0 0
 1 31 366 609 0 367 365 368 0 --.0365346534653465 -.02801980198019805 .01 0 1 0
 0 0 1 .005 16 367 499 0 ?123 138 168 366 0 0 1 30 368 608 0 188 366 369 0 +-.04
65346534653465 -.028019801980198 .005 1 0 0 16 188 500 0 ?370 31 359 368 0 0 1 3
1 369 607 0 168 368 371 0 -.0434653465346535 -.028019801980198 .01 0 1 0 0 0 1 .
005 16 168 501 0 ?117 367 152 369 0 0 1 30 371 606 0 162 369 153 0 +.04846534653
46535 -.028019801980198 .05 0 0 -1 16 162 503 0 ?135 158 178 371 0 0 1 31 153 60
5 0 136 371 166 0 -.0434653465346535 -.028019801980198 .04 0 1 0 0 0 1 .005 30 1
66 604 0 174 153 164 0 -.0484653465346535 .026980198019802 .01 2312964634635745e
-31 -1 0 16 174 504 0 ?94 197 171 166 0 0 1 17 94 0 317 92 117 89 372 174 0 183
 +15 317 578 0 117 313 0 17 92 0 317 112 94 85 373 184 0 29 +17 117 0 317 94 112
 106 374 168 0 135 +17 372 0 375 151 183 106 94 174 0 0 -17 183 0 375 372 149 89
 376 178 0 373 +15 375 548 0 151 332 0 17 149 0 375 183 151 95 115 150 0 376 -17
 376 0 259 156 373 95 183 178 0 0 -17 373 0 259 376 30 89 92 184 0 0 -15 259 465
 0 377 15 0 17 30 0 259 373 378 85 25 31 0 0 -17 378 0 259 30 177 11 88 180 0 0
 -17 177 0 259 378 377 86 379 175 0 0 +17 88 0 321 364 32 86 378 180 0 380 +15 3
21 574 0 88 316 0 17 364 0 321 123 88 119 380 363 0 161 +17 32 0 321 88 123 11 2
8 171 0 378 +17 380 0 381 379 161 86 364 363 0 177 -15 381 538 0 161 284 0 17 37
9 0 381 382 380 90 177 175 0 377 -17 161 0 381 380 382 119 137 158 0 0 +17 382 0
 381 161 379 118 109 186 0 0 -17 137 0 129 125 121 118 161 158 0 382 -17 121 0 1
29 137 383 119 123 367 0 364 -17 383 0 129 121 374 113 370 188 0 28 -17 123 0 32
1 32 364 113 121 367 0 383 +17 374 0 129 383 135 110 117 168 0 0 -17 370 0 27 29
 28 110 383 188 0 374 +17 28 0 27 370 25 113 32 171 0 0 -15 27 562 0 370 327 0 1
7 29 0 27 25 370 85 112 169 0 30 -17 112 0 317 117 92 110 29 169 0 370 +17 135 0
 129 374 130 106 151 162 0 372 +17 151 0 375 149 372 98 135 162 0 130 -17 109 0
 324 105 127 90 382 186 0 379 +15 324 570 0 105 320 0 17 105 0 324 139 109 103 3
77 172 0 141 +17 127 0 324 109 139 118 125 138 0 137 +17 139 0 324 127 105 107 1
41 152 0 131 +17 141 0 140 148 131 103 139 152 0 155 -17 155 0 259 377 156 103 1
48 143 0 0 +17 377 0 259 177 155 90 105 172 0 0 -17 156 0 259 155 376 99 97 157
 0 0 -17 97 0 145 115 101 95 156 157 0 149 +16 150 505 0 ?115 136 157 164 0 0 1
 17 360 0 347 360 360 0 384 359 0 0 +16 19 685 0 ?348 359 354 7 0 0 1 15 347 701
 0 360 342 385 17 384 0 340 384 384 0 360 359 0 0 -15 340 666 0 384 284 381 15 3
85 702 0 386 342 0 17 386 0 385 386 386 0 356 354 0 0 -17 356 0 292 356 356 0 38
6 354 0 0 +15 292 678 0 356 272 271 15 299 671 0 352 255 253 17 350 0 335 350 35
0 0 348 19 0 0 -15 335 659 0 350 332 375 81 1 345 999 280 342 387 0 341 0 388 80
 255 1 280 389 390 9000 1 1 1 1 1 1 1 1 0 FFFFTFTFFFFFFF1 81 1 387 934 391 342 0
 345 344 0 392 82 255 1 388 -84213648 80 1 391 0 393 8001 0 0 0 0 3 5 0 0 0 FFFF
TFTFFFFFFF2 81 1 344 933 391 315 0 341 394 387 395 83 255 3 392 .792156862745098
 .819607843137255 .933333333333333 81 1 394 932 391 313 0 310 396 344 397 83 3 3
95 .792156862745098 .819607843137255 .933333333333333 81 1 310 989 280 313 394 0
 307 319 398 81 1 396 931 391 316 0 319 399 394 400 83 3 397 .792156862745098 .8
19607843137255 .933333333333333 81 1 319 990 280 316 396 0 310 323 401 81 1 399
 930 391 320 0 323 402 396 403 83 3 400 .792156862745098 .819607843137255 .93333
3333333333 81 1 323 991 280 320 399 0 319 326 404 81 1 402 929 391 146 0 326 405
 399 406 83 3 403 .792156862745098 .819607843137255 .933333333333333 81 1 326 99
2 280 146 402 0 323 329 407 81 1 405 928 391 327 0 329 408 402 409 83 3 406 .792
156862745098 .819607843137255 .933333333333333 81 1 329 993 280 327 405 0 326 33
1 410 81 1 408 927 391 154 0 331 411 405 412 83 3 409 .792156862745098 .81960784
3137255 .933333333333333 81 1 331 994 280 154 408 0 329 334 413 81 1 411 926 391
 332 0 334 414 408 415 83 3 412 .792156862745098 .819607843137255 .9333333333333
33 81 1 334 995 280 332 411 0 331 337 416 81 1 414 925 391 134 0 337 417 411 418
 83 3 415 .792156862745098 .819607843137255 .933333333333333 81 1 337 996 280 13
4 414 0 334 339 419 81 1 417 924 391 284 0 339 420 414 421 83 3 418 .79215686274
5098 .819607843137255 .933333333333333 81 1 339 997 280 284 417 0 337 341 422 81
 1 420 923 391 17 0 282 281 417 423 83 3 421 .792156862745098 .819607843137255 .
933333333333333 81 1 282 980 280 17 420 0 279 285 424 81 1 281 922 391 278 0 279
 425 420 426 83 3 423 .792156862745098 .819607843137255 .933333333333333 81 1 42
5 921 391 275 0 285 303 281 427 83 3 426 .792156862745098 .819607843137255 .9333
33333333333 81 1 285 981 280 275 425 0 282 287 428 81 1 303 920 391 264 0 302 30
6 425 429 83 3 427 .792156862745098 .819607843137255 .933333333333333 81 1 306 9
19 391 245 0 304 309 303 430 83 3 429 .792156862745098 .819607843137255 .9333333
33333333 81 1 309 918 391 266 0 307 431 306 432 83 3 430 .792156862745098 .81960
7843137255 .933333333333333 81 1 431 917 391 255 0 298 433 309 434 83 3 432 .792
156862745098 .819607843137255 .933333333333333 81 1 298 984 280 255 431 0 290 30
0 435 81 1 433 916 391 250 0 300 436 431 437 83 3 434 .792156862745098 .81960784
3137255 .933333333333333 81 1 300 985 280 250 433 0 298 302 438 81 1 436 915 391
 272 0 290 289 433 439 83 3 437 .792156862745098 .819607843137255 .9333333333333
33 81 1 290 983 280 272 436 0 287 298 440 81 1 289 914 391 15 0 287 0 436 441 83
 3 439 .792156862745098 .819607843137255 .933333333333333 83 3 441 .792156862745
098 .819607843137255 .933333333333333 82 1 440 179699824 82 1 438 179437675 82 1
 435 179175536 82 1 428 1422917739 82 1 424 1426849899 82 1 422 1538195568 82 1
 419 1538326637 82 1 416 1539309680 82 1 413 1538916461 82 1 410 1538785389 82 1
 407 1538588781 82 1 404 1537998957 82 1 401 1537802349 82 1 398 1537933421 79 2
55 15 393 SDL/TYSA_COLOUR79 14 390 SWEntUnchanged82 1 346 -86769552 82 1 311 172
359787 82 1 308 177995883 82 1 305 1076428905 82 1 291 178913389 82 1 283 142488
3819 17 39 0 257 48 40 26 36 193 0 276 +17 75 0 253 208 254 73 256 217 0 251 +19
 16 95 0 1 0 9 5 S0 74 4 CI16 index_map_offset0 0 1 dCCZ20 14 3 0 0 345 2 387 0
 0 0 0 0 0 0 0 0 0 0 0 0 0 0 0 0 80 2 12 442 443 8004 0 0 0 0 3 5 0 0 0 FFTFFFFF
FFFFFF2 3 83 1 13 1 79 16 443 SDL/TYSA_DENSITY1 0 
